<?xml version="1.0" encoding="UTF-8" standalone="no"?>
<!-- Created with Inkscape (http://www.inkscape.org/) -->

<svg
   xmlns:dc="http://purl.org/dc/elements/1.1/"
   xmlns:cc="http://creativecommons.org/ns#"
   xmlns:rdf="http://www.w3.org/1999/02/22-rdf-syntax-ns#"
   xmlns:svg="http://www.w3.org/2000/svg"
   xmlns="http://www.w3.org/2000/svg"
   xmlns:sodipodi="http://sodipodi.sourceforge.net/DTD/sodipodi-0.dtd"
   xmlns:inkscape="http://www.inkscape.org/namespaces/inkscape"
   width="974"
   height="978"
   id="svg2"
   version="1.1"
   inkscape:version="0.48.3.1 r9886"
   sodipodi:docname="Nouveau document 1">
  <defs
     id="defs4" />
  <sodipodi:namedview
     id="base"
     pagecolor="#ffffff"
     bordercolor="#666666"
     borderopacity="1.0"
     inkscape:pageopacity="0.0"
     inkscape:pageshadow="2"
     inkscape:zoom="0.49497475"
     inkscape:cx="1050.4664"
     inkscape:cy="424.12166"
     inkscape:document-units="px"
     inkscape:current-layer="layer1"
     showgrid="false"
     fit-margin-top="0"
     fit-margin-left="0"
     fit-margin-right="0"
     fit-margin-bottom="0"
     inkscape:window-width="1920"
     inkscape:window-height="1030"
     inkscape:window-x="0"
     inkscape:window-y="0"
     inkscape:window-maximized="1" />
  <metadata
     id="metadata7">
    <rdf:RDF>
      <cc:Work
         rdf:about="">
        <dc:format>image/svg+xml</dc:format>
        <dc:type
           rdf:resource="http://purl.org/dc/dcmitype/StillImage" />
        <dc:title></dc:title>
      </cc:Work>
    </rdf:RDF>
  </metadata>
  <g
     inkscape:label="Calque 1"
     inkscape:groupmode="layer"
     id="layer1"
     transform="translate(988.03567,223.54667)">
    <g
       id="g3066"
       transform="translate(-955.60431,21.213203)">
      <path
         style="fill:#fdfdfd"
         d="m -32.431355,675.24013 0,-58 8,0 8,0 0,-371.5 0,-371.5 -8,0 -8,0 0,-59.5 0,-59.5 58.5,0 58.5,0 0,8 0,8 368.999995,0 369,0 0,-8 0,-8 59.5,0 59.5,0 0,59.5 0,59.5 -8,0 -8,0 0,371.5 0,371.5 8,0 8,0 0,58 0,58 -59.5,0 -59.5,0 0,-8 0,-8 -369,0 -368.999995,0 0,8 0,8 -58.5,0 -58.5,0 0,-58 z M 469.1098,655.27435 c 51.51788,-2.00995 87.69326,-6.86973 127.45884,-17.12275 51.68632,-13.32663 95.35746,-34.359 132,-63.57228 10.8804,-8.6744 31.60335,-29.38818 40.35705,-40.33919 32.98005,-41.25855 53.70852,-92.70219 59.03006,-146.5 2.13666,-21.60052 0.83061,-49.83139 -3.01403,-65.14967 -0.43453,-1.73129 -0.061,-2.25728 1.78886,-2.51924 1.53335,-0.21714 2.44804,-1.1055 2.65761,-2.58109 0.27704,-1.9507 -0.12786,-2.25 -3.04388,-2.25 -3.3447,0 -3.3793,-0.0488 -6.21095,-8.75 -1.56614,-4.8125 -4.35889,-12.06868 -6.20612,-16.12484 l -3.3586,-7.37485 0,-67.87515 0,-67.87516 10.27623,0 c 21.3763,0 34.6136,3.27083 39.342,9.72108 3.61943,4.93744 4.63234,9.51398 5.26292,23.77892 0.60001,13.5739 0.68785,14.00979 2.88559,14.32175 l 2.26675,0.32174 -0.26675,-26.32174 -0.26674,-26.32175 -72.75,-0.25653 -72.75,-0.25653 0,26.50653 c 0,25.38145 0.0807,26.50653 1.90135,26.50653 1.72351,0 1.96247,-1.099 2.55483,-11.75 0.82729,-14.87542 2.00375,-20.81477 5.03146,-25.4015 4.89863,-7.421 17.61091,-10.8485 40.23613,-10.8485 l 10.27623,0 0,49.60034 0,49.60035 -5.60526,-5.12289 c -26.46731,-24.18963 -58.87516,-38.70431 -102.89474,-46.08402 -7.15,-1.19867 -13.21822,-2.39335 -13.48494,-2.65486 -0.26671,-0.2615 -4.37002,-11.80724 -9.11846,-25.65719 -6.95865,-20.29655 -9.00357,-25.23803 -10.54102,-25.47192 -1.66841,-0.25382 -2.83691,2.74001 -9.32259,23.88551 l -7.4151,24.1757 -12.05894,-0.61741 c -6.63242,-0.33957 -26.34645,-0.91869 -43.80895,-1.28693 l -31.75,-0.66953 0.0435,-12.09857 c 0.0763,-21.19278 1.79843,-24.78995 12.79553,-26.72705 5.55418,-0.97835 6.23479,-1.34779 5.96522,-3.23794 -0.30052,-2.10746 -0.58598,-2.13359 -23.30425,-2.13359 -22.67426,0 -23.00428,0.03 -23.30259,2.12062 -0.27414,1.92113 0.41101,2.22675 7.28351,3.24891 8.77264,1.30476 11.94206,3.03647 13.44426,7.34568 0.59115,1.69578 1.07482,9.74832 1.07482,17.89454 l 0,14.8113 -28.36851,0.0462 -28.36851,0.0462 -15.88149,-23.00956 -15.88149,-23.00956 -24,0.25287 -24,0.25287 -0.31955,2.25 c -0.31229,2.19885 -0.10199,2.25 9.25,2.25 l 9.56955,0 0,19.82465 0,19.82465 -10.25,-1.29148 c -5.63749,-0.71032 -14.52499,-2.25676 -19.75,-3.43655 -9.12236,-2.05978 -32.07751,-8.66544 -32.87119,-9.45913 -0.21069,-0.2107 -0.88838,-7.03838 -1.50595,-15.17261 l -1.12286,-14.7896 -36.39069,-0.26262 -36.3907,-0.26263 -6.6093,-4.6789 c -9.59037,-6.78928 -23.76203,-21.46189 -30.47796,-31.55528 -17.70234,-26.60499 -24.1014,-59.37221 -17.98414,-92.09016 9.11358,-48.74369 55.66883,-93.59983 118.85279,-114.51509 33.81725,-11.19423 64.35174,-15.63532 107.5,-15.63532 24.81502,0 36.97953,0.88506 55.8913,4.06653 59.23209,9.96443 106.10912,33.60064 139.32002,70.24755 18.27345,20.16403 28.85075,46.45393 31.25564,77.68592 1.02548,13.31774 1.41988,19.78951 1.47783,24.25 l 0.0552,4.25 17.93963,0 17.93964,0 0.31036,-3.75 c 0.50561,-6.10899 -1.06256,-29.94441 -2.7139,-41.25 -7.70584,-52.75669 -33.58856,-91.03793 -83.97573,-124.20234 -52.94316,-34.84675 -120.41956,-51.24522 -196.56543,-47.77036 -52.54806,2.398 -94.58219,12.03428 -132.43457,30.3605 -26.33798,12.75152 -44.02823,25.11658 -63.0731,44.08657 -24.45796,24.36176 -38.80936,48.28092 -45.89833,76.49768 -3.43144,13.65842 -4.52857,23.21378 -4.52857,39.44131 0,21.92563 2.32363,36.00824 9.11899,55.26666 8.24911,23.37843 24.92589,47.85782 43.1982,63.40946 l 7.53201,6.41052 0.0754,76.25 0.0754,76.25 -9.06955,0 c -8.83348,0 -9.06123,0.0586 -8.75,2.25 l 0.31955,2.25 68.25,0.25694 68.25,0.25694 0,-26.50694 c 0,-25.29311 -0.0863,-26.50694 -1.88337,-26.50694 -2.16524,0 -3.08306,2.57358 -3.10298,8.70078 -0.047,14.44935 -7.04894,27.18368 -18.01365,32.76098 -8.99635,4.57609 -17.65262,5.79556 -44.75,6.30424 l -25.25,0.474 0,-41.76182 0,-41.76181 13.25,0.51404 c 14.3725,0.55759 19.13894,1.85363 24.02351,6.53225 3.42541,3.28098 5.72649,10.71019 5.72649,18.48839 0,5.53414 0.13525,5.86884 2.25,5.5685 l 2.25,-0.31955 0.26446,-30.75 c 0.14544,-16.9125 0.5534,-30.75 0.90658,-30.75 0.35316,0 11.84976,3.37808 25.54797,7.50685 26.90033,8.10802 42.87311,11.71139 60.531,13.65549 l 11.25,1.23859 -0.006,39.54954 c -0.003,24.39329 -0.40567,40.99024 -1.04961,43.30899 -1.3067,4.70526 -4.00613,6.49899 -11.86335,7.88301 -5.47672,0.96471 -6.15498,1.33623 -5.88576,3.22394 0.29941,2.09929 0.67806,2.13791 23.5543,2.40202 l 23.25,0.26843 0,-2.44647 c 0,-2.23134 -0.50565,-2.50739 -5.75,-3.13919 -7.64196,-0.92065 -11.70725,-2.69362 -13.92222,-6.07182 -1.68097,-2.56376 -1.85274,-6.06008 -2.13854,-43.52824 l -0.31075,-40.74057 24.31075,0.58635 c 16.1102,0.38857 24.54433,0.96023 25.00319,1.69472 7.83311,12.5384 65.83033,94.18164 67.07436,94.42122 1.62554,0.31297 1.73362,-2.70433 1.73362,-48.38704 l 0,-48.72083 37.55806,0.53889 c 20.65693,0.2964 37.83202,0.81287 38.16687,1.14772 0.54641,0.54641 -8.04059,29.35434 -20.35936,68.30222 -2.46914,7.8066 -5.38197,15.3286 -6.47294,16.71556 -2.1907,2.78501 -7.35297,4.57649 -13.21218,4.58504 -3.38773,0.005 -3.78343,0.25995 -3.5,2.25558 l 0.31955,2.25 22,0 c 21.67859,0 22.00443,-0.0311 22.30353,-2.12777 0.27643,-1.93778 -0.30396,-2.18851 -6.5,-2.80799 -3.74194,-0.37412 -8.26603,-1.13903 -10.05353,-1.69978 -2.77804,-0.8715 -3.24657,-1.48026 -3.2264,-4.19201 0.013,-1.74485 2.8844,-12.84745 6.38094,-24.67245 l 6.35734,-21.5 25.36906,-0.25826 25.36906,-0.25826 8.76643,25.75826 c 4.82154,14.16704 8.75904,26.09576 8.75,26.50826 -0.009,0.4125 -4.77273,0.75 -10.58598,0.75 -10.38903,0 -10.56408,0.0384 -10.25,2.25 l 0.31956,2.25 32.25,0.26385 32.25,0.26386 0,-2.51386 c -10e-6,-2.485 -0.0961,-2.51385 -8.37372,-2.51385 l -8.37372,0 -3.06958,-9.25 c -1.68827,-5.0875 -8.02546,-23.76615 -14.08264,-41.5081 -10.16977,-29.788 -10.84412,-32.22232 -8.80671,-31.79085 35.93654,7.61035 60.16319,19.61154 79.70637,39.48427 9.36772,9.52568 16.26966,19.21804 22.00453,30.90086 6.39691,13.0315 6.71838,12.16382 -4.50669,12.16382 -9.42188,0 -9.62981,0.0502 -9.3174,2.25 0.30448,2.14379 0.80206,2.26344 10.54112,2.53467 l 10.22154,0.28467 1.57236,5.21533 c 4.62303,15.33409 5.56488,46.34746 2.08138,68.53708 -11.23671,71.57719 -46.08338,127.12343 -104.09685,165.93232 -57.06051,38.17139 -141.57249,59.15021 -238.5,59.20401 -55.86163,0.031 -115.47345,-11.48868 -168.9767,-32.65388 C 181.9856,548.32808 123.06911,483.3857 108.66738,399.24013 c -2.40673,-14.06194 -2.87779,-18.26054 -3.73043,-33.25 l -0.66839,-11.75 -18.244965,0 -18.24498,0 0.34803,5.25 c 0.19142,2.8875 0.6059,10.425 0.92108,16.75 2.24354,45.02432 17.41497,90.60817 42.767985,128.5 22.38488,33.45576 55.56356,64.43157 93.66713,87.44817 44.15087,26.66949 96.65247,45.85512 153.0858,55.94206 9.075,1.62207 19.18422,3.25481 22.46495,3.62831 3.28071,0.37349 6.6682,0.81452 7.52776,0.98005 1.34086,0.25823 24.3279,2.07966 35.00729,2.77389 11.85526,0.77066 20.89301,0.72338 45.54116,-0.23826 z M 516.74071,247.3257 c -8.34463,-12.05293 -15.17207,-22.13659 -15.17207,-22.40812 0,-0.27153 6.97501,-0.55307 15.5,-0.62564 l 15.5,-0.13194 0,22.54006 c 0,12.39704 -0.14757,22.54007 -0.32793,22.54007 -0.18037,0 -7.15537,-9.86149 -15.5,-21.91443 z m 95.45844,3.16443 c 1.32735,-4.2625 3.57541,-11.52707 4.9957,-16.14349 l 2.58235,-8.39348 10.07413,0.6602 c 5.54077,0.3631 11.75197,0.92849 13.80266,1.25641 l 3.72853,0.59621 4.72059,13.63708 c 2.59633,7.50039 4.93635,14.19957 5.20005,14.88707 0.37536,0.97859 -4.73118,1.25 -23.51896,1.25 l -23.99841,0 2.41336,-7.75 z M 268.56864,204.37514 c 0,-12.72426 0.23318,-23.13501 0.51817,-23.13501 0.28499,0 4.89749,2.18766 10.25,4.86146 5.35251,2.6738 14.84706,6.83259 21.09902,9.24176 l 11.36719,4.3803 -0.57971,5.54644 c -0.7779,7.4425 -2.84882,12.05532 -7.08016,15.77048 -4.78253,4.19912 -8.97508,5.26206 -23.3245,5.91347 l -12.25,0.55611 0,-23.13501 z m 363,-16.07599 c 0,-1.06754 0.45,-2.2191 1,-2.55902 0.55,-0.33992 1,-0.17828 1,0.3592 0,0.53747 0.27314,1.68903 0.60699,2.55901 0.39831,1.03799 0.0545,1.58179 -1,1.58179 -0.92404,0 -1.60699,-0.8249 -1.60699,-1.94098 z m -207.75,-0.78242 -3.25,-0.40332 0,-15.58668 0,-15.58668 2.79478,3.90004 c 3.7737,5.26612 17.69658,25.58922 18.59985,27.15004 0.55577,0.96033 -1.08623,1.21291 -7.0856,1.08996 -4.29496,-0.088 -9.27152,-0.34153 -11.05902,-0.56336 z M 324.7139,164.7257 c -8.99511,-2.97461 -21.59511,-8.01325 -28,-11.19698 l -11.64526,-5.78859 10,-0.31023 c 27.87622,-0.86482 42.35364,4.64234 48.0512,18.2785 0.79685,1.90712 1.4488,3.70695 1.4488,3.99961 0,1.2328 -4.39711,0.1294 -19.85475,-4.98231 z m 163.15962,389.93315 c 60.73961,-6.00458 117.27886,-27.34253 156.71038,-59.14259 10.71495,-8.64121 27.34995,-26.2539 35.23909,-37.31019 18.40366,-25.79193 29.9864,-59.37712 31.45823,-91.21594 l 0.5894,-12.75 -18.51398,0 -18.51398,0 -0.69276,9.75 c -3.97216,55.9037 -35.85219,99.21523 -93.58126,127.13746 -27.79994,13.44619 -57.80564,21.7589 -95,26.31859 -13.75895,1.68672 -59.24104,1.68672 -73,0 -66.63695,-8.16908 -118.16502,-30.68415 -153,-66.85301 -12.62002,-13.10326 -19.31392,-22.59465 -26.51747,-37.59959 -7.60053,-15.83181 -10.9656,-29.26285 -13.02919,-52.00345 l -0.61253,-6.75 -18.4204,0 -18.42041,0 0.0195,6.75 c 0.0644,22.28321 7.36445,50.91023 18.59457,72.91878 42.90288,84.08014 159.75881,133.29814 286.69078,120.74994 z m -20.30488,-94.43776 c 33.47582,-2.91656 64.0867,-12.53335 86.68572,-27.2334 25.92126,-16.86108 41.03846,-40.35495 44.20266,-68.69607 0.57981,-5.19323 0.95462,-9.52802 0.83291,-9.63286 -0.12171,-0.10484 -8.54006,-0.35442 -18.70745,-0.55462 l -18.48615,-0.36401 -0.75785,6 c -1.76648,13.98556 -6.84532,23.55539 -18.13869,34.17801 -14.19745,13.35421 -33.56229,21.88599 -61.13114,26.9332 -12.62449,2.31124 -51.74308,2.64934 -63.5,0.54882 -33.46554,-5.97904 -57.04591,-17.00354 -71.45285,-33.40628 -7.54594,-8.59128 -10.82586,-16.37525 -13.06403,-31.00375 l -0.57375,-3.75 -18.60221,0 -18.60221,0 0.63791,8.25 c 2.86639,37.07003 29.24673,68.17686 72.15713,85.08533 29.65477,11.6852 64.9228,16.57103 98.5,13.64563 z m -326.5,-138.45475 c 17.67901,-4.58556 33.58802,-17.49288 41.32297,-33.52621 6.10607,-12.65691 8.47852,-23.72303 8.46836,-39.5 -0.0217,-33.78972 -12.60101,-51.23988 -44.59935,-61.86892 -8.07093,-2.68096 -22.3369,-5.79089 -45.69197,-9.96067 -16.426005,-2.93268 -21.376595,-5.14962 -28.371805,-12.70528 -6.753997,-7.29512 -8.68602,-12.55795 -9.352574,-25.47638 -0.609633,-11.81526 0.663217,-19.04574 4.815644,-27.35549 7.00871,-14.02566 21.06973,-21.37136 40.908735,-21.37136 17.56657,0 28.51312,4.4924 40.52215,16.63003 10.73114,10.84606 17.37845,24.42759 20.50147,41.88768 1.98173,11.07954 1.83113,10.72039 4.49542,10.72039 l 2.48095,0 0,-34.5 0,-34.5 -2.38646,0 c -2.04986,0 -2.47853,0.61404 -3.03932,4.35365 -0.7871,5.24873 -3.68458,8.64863 -7.36318,8.63995 -1.49107,-0.004 -6.98604,-2.47795 -12.21104,-5.49873 C 132.25883,86.57122 122.03967,83.67623 104.8256,84.49314 87.757625,85.30312 74.955235,90.65689 64.620179,101.30646 52.354086,113.94584 45.376208,136.542 46.934359,158.57769 c 1.228115,17.36825 5.774059,28.84331 15.118376,38.16244 10.56676,10.53828 21.94871,15.21124 52.104595,21.39202 30.69127,6.2905 40.39491,10.16797 49.47624,19.77015 7.28203,7.69967 10.22619,14.73779 10.76051,25.72336 0.67794,13.93868 -2.35466,24.0341 -10.38148,34.55955 -15.29247,20.05281 -46.12043,25.85239 -71.369455,13.42653 -9.25506,-4.55472 -20.98543,-15.8487 -26.871282,-25.87161 -5.615168,-9.56197 -10.87839,-25.83909 -12.472529,-38.57272 -1.279629,-10.22139 -1.358967,-10.43353 -4.018047,-10.7437 l -2.712642,-0.31642 0,41.56642 0,41.56642 3,0 c 2.717182,0 3.000352,-0.30639 3.003738,-3.25 0.0021,-1.7875 0.929173,-4.76797 2.060261,-6.62326 1.914954,-3.14105 2.344937,-3.33966 6.246262,-2.88517 2.304356,0.26846 9.139739,2.72728 15.189739,5.46405 21.1449,9.56509 33.318805,12.50033 49.000005,11.81433 5.49999,-0.24061 12.69999,-1.13779 15.99999,-1.99374 z m 159.69859,-210.2034 c 11.49796,-7.52245 22.23198,-15.18811 23.85339,-17.0348 8.85718,-10.08776 -3.50807,-21.97253 -13.62183,-13.09253 -2.89434,2.54126 -29.41843,30.95616 -38.78936,41.55452 l -1.98942,2.25 4.82092,0 c 4.50726,0 6.18111,-0.88989 25.7263,-13.67719 z m 32.80141,-51.61271 c 0,-1.80945 0.68904,-5.93529 1.53119,-9.16855 5.91463,-22.70777 27.68666,-40.77385 60.24556,-49.99079 18.70471,-5.29502 25.01989,-6.03253 51.72325,-6.04039 22.0829,-0.006 26.31333,0.25865 36.2554,2.27237 45.51632,9.21911 74.09873,30.72581 78.56961,59.11934 l 1.11765,7.09792 17.92228,0 17.92227,0 -0.66125,-7.11473 c -3.68773,-39.67859 -32.10342,-70.53635 -80.35168,-87.25719 -21.17689,-7.33903 -43.7183,-10.76027 -70.77427,-10.74183 -34.98292,0.0239 -65.67346,6.60771 -91.55262,19.64025 -24.33684,12.25583 -43.06305,31.25325 -51.7244,52.4735 -3.29805,8.08024 -6.22299,21.52772 -6.22299,28.61047 l 0,4.38953 18,0 18,0 0,-3.2899 z"
         id="path3076"
         inkscape:connector-curvature="0" />
      <path
         style="fill:#cecfd1"
         d="m 84.918055,725.24013 c 0,-4.675 0.17226,-6.5875 0.3828,-4.25 0.21053,2.3375 0.21053,6.1625 0,8.5 -0.21054,2.3375 -0.3828,0.425 -0.3828,-4.25 z M 423.56864,655.51261 c -10.67939,-0.69423 -33.66644,-2.51566 -35.00729,-2.77389 -0.85956,-0.16553 -4.24705,-0.60656 -7.52776,-0.98005 -24.23116,-2.75862 -63.31885,-11.77341 -90.96495,-20.97924 C 211.088,604.4798 149.33509,560.81548 111.81571,504.74013 86.462695,466.8483 71.291265,421.26445 69.047725,376.24013 c -0.31518,-6.325 -0.72966,-13.8625 -0.92108,-16.75 l -0.34803,-5.25 18.24498,0 18.244975,0 0.66838,11.75 c 2.95159,51.88882 17.46768,92.74574 46.37044,130.51402 50.92151,66.54099 150.67254,112.1717 266.13067,121.74043 27.48322,2.2777 70.96312,0.65369 108.63058,-4.05746 134.74209,-16.85244 222.96951,-79.0711 254.83845,-179.71402 11.9627,-37.77851 14.95216,-83.15902 7.17702,-108.9483 l -1.57236,-5.21533 -10.22155,-0.28467 c -9.8248,-0.27362 -10.22672,-0.3726 -10.35461,-2.55 -0.11068,-1.8844 -0.057,-1.92644 0.31955,-0.25 0.44178,1.96713 1.19076,2.01533 31.3135,2.01533 30.12274,0 30.87172,-0.0482 31.3135,-2.01533 0.3765,-1.67644 0.43023,-1.6344 0.31955,0.25 -0.0918,1.56338 -0.85754,2.36792 -2.4711,2.59642 -1.84991,0.26196 -2.22339,0.78795 -1.78886,2.51924 3.84464,15.31828 5.15069,43.54915 3.01403,65.14967 -5.32154,53.79781 -26.05001,105.24145 -59.03006,146.5 -8.7537,10.95101 -29.47665,31.66479 -40.35705,40.33919 -36.64254,29.21328 -80.31368,50.24565 -132,63.57228 -39.76558,10.25302 -75.94096,15.1128 -127.45885,17.12275 -24.64815,0.96164 -33.68589,1.00892 -45.54115,0.23826 z m 22.25,-99.00095 c 2.0625,-0.21574 5.4375,-0.21574 7.5,0 2.0625,0.21575 0.375,0.39226 -3.75,0.39226 -4.125,0 -5.8125,-0.17651 -3.75,-0.39226 z m -23.5,-0.97726 c 1.23751,-0.23836 3.2625,-0.23836 4.5,0 1.23751,0.23835 0.22501,0.43337 -2.25,0.43337 -2.475,0 -3.4875,-0.19502 -2.25,-0.43337 z m 49,0 c 1.23751,-0.23836 3.2625,-0.23836 4.5,0 1.23751,0.23835 0.22501,0.43337 -2.25,0.43337 -2.475,0 -3.4875,-0.19502 -2.25,-0.43337 z m -60.5,-0.9836 c 0.9625,-0.25152 2.53751,-0.25152 3.5,0 0.9625,0.25153 0.17501,0.45733 -1.75,0.45733 -1.925,0 -2.71249,-0.2058 -1.75,-0.45733 z m 74.01904,-0.004 c 0.97297,-0.25354 2.32297,-0.23687 3,0.0371 0.67702,0.27393 -0.11903,0.48137 -1.76904,0.46099 -1.64999,-0.0204 -2.20393,-0.2445 -1.23096,-0.49804 z m -82.51904,-0.96895 c 0.6875,-0.27741 1.8125,-0.27741 2.5,0 0.6875,0.27741 0.125,0.50439 -1.25,0.50439 -1.375,0 -1.9375,-0.22698 -1.25,-0.50439 z m 92,0 c 0.6875,-0.27741 1.8125,-0.27741 2.5,0 0.6875,0.27741 0.125,0.50439 -1.25,0.50439 -1.375,0 -1.9375,-0.22698 -1.25,-0.50439 z m -100,-1 c 0.6875,-0.27741 1.8125,-0.27741 2.5,0 0.6875,0.27741 0.125,0.50439 -1.25,0.50439 -1.375,0 -1.9375,-0.22698 -1.25,-0.50439 z m 107,0 c 0.6875,-0.27741 1.8125,-0.27741 2.5,0 0.6875,0.27741 0.125,0.50439 -1.25,0.50439 -1.375,0 -1.9375,-0.22698 -1.25,-0.50439 z m -112.9375,-1.02083 c 0.72188,-0.28887 1.58439,-0.25335 1.91668,0.0789 0.33229,0.33229 -0.25834,0.56864 -1.3125,0.52522 -1.16495,-0.048 -1.40191,-0.28494 -0.60418,-0.60416 z m 120,0 c 0.72187,-0.28887 1.58439,-0.25335 1.91667,0.0789 0.33229,0.33229 -0.25834,0.56864 -1.3125,0.52522 -1.16495,-0.048 -1.4019,-0.28494 -0.60417,-0.60416 z m -126,-1 c 0.72188,-0.28887 1.58439,-0.25335 1.91668,0.0789 0.33229,0.33229 -0.25834,0.56864 -1.3125,0.52522 -1.16495,-0.048 -1.40191,-0.28494 -0.60418,-0.60416 z m 132,0 c 0.72187,-0.28887 1.58438,-0.25335 1.91667,0.0789 0.33229,0.33229 -0.25834,0.56864 -1.3125,0.52522 -1.16495,-0.048 -1.4019,-0.28494 -0.60417,-0.60416 z m -137,-1 c 0.72188,-0.28887 1.58439,-0.25335 1.91668,0.0789 0.33229,0.33229 -0.25834,0.56864 -1.3125,0.52522 -1.16495,-0.048 -1.40191,-0.28494 -0.60418,-0.60416 z m -5,-1 c 0.72188,-0.28887 1.58439,-0.25335 1.91668,0.0789 0.33229,0.33229 -0.25834,0.56864 -1.3125,0.52522 -1.16495,-0.048 -1.40191,-0.28494 -0.60418,-0.60416 z m -9,-2 c 0.72188,-0.28887 1.58439,-0.25335 1.91668,0.0789 0.33229,0.33229 -0.25834,0.56864 -1.3125,0.52522 -1.16495,-0.048 -1.40191,-0.28494 -0.60418,-0.60416 z m -4,-1 c 0.72188,-0.28887 1.58439,-0.25335 1.91668,0.0789 0.33229,0.33229 -0.25834,0.56864 -1.3125,0.52522 -1.16495,-0.048 -1.40191,-0.28494 -0.60418,-0.60416 z m -4,-1 c 0.72188,-0.28887 1.58439,-0.25335 1.91668,0.0789 0.33229,0.33229 -0.25834,0.56864 -1.3125,0.52522 -1.16495,-0.048 -1.40191,-0.28494 -0.60418,-0.60416 z m 89.91521,-25.03862 c 1.77523,-0.22091 4.92523,-0.22454 7,-0.008 2.07476,0.21648 0.6223,0.39722 -3.22771,0.40166 -3.85,0.004 -5.54754,-0.17268 -3.77229,-0.39359 z m -21.97771,-0.984 c 1.23751,-0.23836 3.2625,-0.23836 4.5,0 1.23751,0.23835 0.22501,0.43337 -2.25,0.43337 -2.475,0 -3.4875,-0.19502 -2.25,-0.43337 z m 47,0 c 1.23751,-0.23836 3.2625,-0.23836 4.5,0 1.23751,0.23835 0.22501,0.43337 -2.25,0.43337 -2.475,0 -3.4875,-0.19502 -2.25,-0.43337 z m -57.48097,-0.98726 c 0.97297,-0.25354 2.32297,-0.23687 3,0.0371 0.67703,0.27393 -0.11903,0.48137 -1.76903,0.46099 -1.64999,-0.0204 -2.20393,-0.2445 -1.23097,-0.49804 z m 70,0 c 0.97297,-0.25354 2.32297,-0.23687 3,0.0371 0.67703,0.27393 -0.11903,0.48137 -1.76903,0.46099 -1.65,-0.0204 -2.20394,-0.2445 -1.23097,-0.49804 z m -78.51903,-0.96929 c 0.6875,-0.27741 1.8125,-0.27741 2.5,0 0.6875,0.27741 0.125,0.50439 -1.25,0.50439 -1.375,0 -1.9375,-0.22698 -1.25,-0.50439 z m 87,0 c 0.6875,-0.27741 1.8125,-0.27741 2.5,0 0.6875,0.27741 0.125,0.50439 -1.25,0.50439 -1.375,0 -1.9375,-0.22698 -1.25,-0.50439 z m -93.9375,-1.02083 c 0.72188,-0.28887 1.58439,-0.25335 1.91668,0.0789 0.33229,0.33229 -0.25834,0.56864 -1.3125,0.52522 -1.16495,-0.048 -1.40191,-0.28494 -0.60418,-0.60416 z m 102,0 c 0.72187,-0.28887 1.58439,-0.25335 1.91667,0.0789 0.33229,0.33229 -0.25834,0.56864 -1.3125,0.52522 -1.16495,-0.048 -1.4019,-0.28494 -0.60417,-0.60416 z m -108,-1 c 0.72188,-0.28887 1.58439,-0.25335 1.91668,0.0789 0.33229,0.33229 -0.25834,0.56864 -1.3125,0.52522 -1.16495,-0.048 -1.40191,-0.28494 -0.60418,-0.60416 z m 114,0 c 0.72187,-0.28887 1.58439,-0.25335 1.91667,0.0789 0.33229,0.33229 -0.25834,0.56864 -1.3125,0.52522 -1.16495,-0.048 -1.4019,-0.28494 -0.60417,-0.60416 z m 6,-1 c 0.72187,-0.28887 1.58438,-0.25335 1.91667,0.0789 0.33229,0.33229 -0.25834,0.56864 -1.3125,0.52522 -1.16495,-0.048 -1.4019,-0.28494 -0.60417,-0.60416 z m 5,-1 c 0.72187,-0.28887 1.58438,-0.25335 1.91667,0.0789 0.33229,0.33229 -0.25834,0.56864 -1.3125,0.52522 -1.16495,-0.048 -1.4019,-0.28494 -0.60417,-0.60416 z m -145,-2 c 0.72188,-0.28887 1.58439,-0.25335 1.91668,0.0789 0.33229,0.33229 -0.25834,0.56864 -1.3125,0.52522 -1.16495,-0.048 -1.40191,-0.28494 -0.60418,-0.60416 z m -4,-1 c 0.72188,-0.28887 1.58439,-0.25335 1.91668,0.0789 0.33229,0.33229 -0.25834,0.56864 -1.3125,0.52522 -1.16495,-0.048 -1.40191,-0.28494 -0.60418,-0.60416 z m 162,0 c 0.72187,-0.28887 1.58438,-0.25335 1.91667,0.0789 0.33229,0.33229 -0.25834,0.56864 -1.3125,0.52522 -1.16495,-0.048 -1.4019,-0.28494 -0.60417,-0.60416 z m 109.1875,-9.69445 c 0,-0.20765 0.7875,-0.99515 1.75,-1.75 1.58606,-1.24387 1.62143,-1.2085 0.37756,0.37756 -1.30637,1.66575 -2.12756,2.19548 -2.12756,1.37244 z m 5.5,-4.62244 c 0.99549,-1.1 2.03498,-2 2.30998,-2 0.275,0 -0.31449,0.9 -1.30998,2 -0.99549,1.1 -2.03498,2 -2.30998,2 -0.275,0 0.31449,-0.9 1.30998,-2 z m -392.62756,-0.75 c -1.24387,-1.58606 -1.2085,-1.62143 0.37756,-0.37756 0.9625,0.75485 1.75,1.54235 1.75,1.75 0,0.82304 -0.82119,0.29331 -2.12756,-1.37244 z m -5.94813,-5 -2.42431,-2.75 2.75,2.42431 c 2.57029,2.26589 3.2086,3.07569 2.42431,3.07569 -0.17912,0 -1.41662,-1.2375 -2.75,-2.75 z m 406.07569,-0.75 c 1.86578,-1.925 3.61733,-3.5 3.89233,-3.5 0.275,0 -1.02655,1.575 -2.89233,3.5 -1.86578,1.925 -3.61733,3.5 -3.89233,3.5 -0.275,0 1.02655,-1.575 2.89233,-3.5 z m -417.53129,-9.75 -5.96871,-6.25 6.25,5.9687 c 5.80572,5.54441 6.70761,6.5313 5.96871,6.5313 -0.15472,0 -2.96722,-2.8125 -6.25,-6.25 z m 430.53129,-3.06291 c 0,-0.1721 1.4625,-1.6346 3.25,-3.25 l 3.25,-2.93709 -2.93709,3.25 c -2.73778,3.02946 -3.56291,3.70965 -3.56291,2.93709 z m -382.12756,-4.43709 c -1.24387,-1.58606 -1.2085,-1.62143 0.37756,-0.37756 0.9625,0.75485 1.75,1.54235 1.75,1.75 0,0.82304 -0.82119,0.29331 -2.12756,-1.37244 z m -4,-3 c -1.24387,-1.58606 -1.2085,-1.62143 0.37756,-0.37756 0.9625,0.75485 1.75,1.54235 1.75,1.75 0,0.82304 -0.82119,0.29331 -2.12756,-1.37244 z m -55.46745,-1.5 -1.90499,-2.25 2.25,1.90499 c 2.11444,1.79022 2.70524,2.59501 1.90499,2.59501 -0.18975,0 -1.20226,-1.0125 -2.25,-2.25 z m 394.59501,1.87244 c 0,-0.20765 0.7875,-0.99515 1.75,-1.75 1.58606,-1.24387 1.62143,-1.2085 0.37756,0.37756 -1.30637,1.66575 -2.12756,2.19548 -2.12756,1.37244 z m 54,-1 c 0,-0.20765 0.7875,-0.99515 1.75,-1.75 1.58606,-1.24387 1.62143,-1.2085 0.37756,0.37756 -1.30637,1.66575 -2.12756,2.19548 -2.12756,1.37244 z m -397.59501,-2.87244 -1.90499,-2.25 2.25,1.90499 c 2.11444,1.79022 2.70524,2.59501 1.90499,2.59501 -0.18975,0 -1.20226,-1.0125 -2.25,-2.25 z m 348.59501,-0.0629 c 0,-0.1721 1.4625,-1.6346 3.25,-3.25 l 3.25,-2.93709 -2.93709,3.25 c -2.73778,3.02946 -3.56291,3.70965 -3.56291,2.93709 z m -404.12755,-3.43709 c -1.24387,-1.58606 -1.2085,-1.62143 0.37755,-0.37756 0.9625,0.75485 1.75,1.54235 1.75,1.75 0,0.82304 -0.82119,0.29331 -2.12755,-1.37244 z m 42.6067,-8.5 -8.97915,-9.25 9.25,8.97915 c 5.0875,4.93853 9.25,9.10103 9.25,9.25 0,0.72605 -1.18122,-0.38796 -9.52085,-8.97915 z m 181.27085,7.5096 c 3.4375,-0.19527 9.0625,-0.19527 12.5,0 3.4375,0.19527 0.625,0.35504 -6.25,0.35504 -6.875,0 -9.6875,-0.15977 -6.25,-0.35504 z m -17.48097,-0.95259 c 0.97297,-0.25354 2.32297,-0.23687 3,0.0371 0.67703,0.27393 -0.11903,0.48137 -1.76903,0.46099 -1.64999,-0.0204 -2.20393,-0.2445 -1.23097,-0.49804 z m 45,0 c 0.97297,-0.25354 2.32297,-0.23687 3,0.0371 0.67703,0.27393 -0.11903,0.48137 -1.76903,0.46099 -1.64999,-0.0204 -2.20393,-0.2445 -1.23097,-0.49804 z m -254.39658,-2.05701 c -1.24387,-1.58606 -1.2085,-1.62143 0.37755,-0.37756 0.9625,0.75485 1.75,1.54235 1.75,1.75 0,0.82304 -0.82119,0.29331 -2.12755,-1.37244 z m 200.87755,1.08772 c 0.6875,-0.27741 1.8125,-0.27741 2.5,0 0.6875,0.27741 0.125,0.50439 -1.25,0.50439 -1.375,0 -1.9375,-0.22698 -1.25,-0.50439 z m 63.0625,-0.0208 c 0.72187,-0.28887 1.58439,-0.25335 1.91667,0.0789 0.33229,0.33229 -0.25834,0.56864 -1.3125,0.52522 -1.16495,-0.048 -1.4019,-0.28494 -0.60417,-0.60416 z m -75,-2 c 0.72188,-0.28887 1.58439,-0.25335 1.91668,0.0789 0.33229,0.33229 -0.25834,0.56864 -1.3125,0.52522 -1.16495,-0.048 -1.40191,-0.28494 -0.60418,-0.60416 z m 87,0 c 0.72187,-0.28887 1.58439,-0.25335 1.91667,0.0789 0.33229,0.33229 -0.25834,0.56864 -1.3125,0.52522 -1.16495,-0.048 -1.4019,-0.28494 -0.60417,-0.60416 z m 148.1875,-8.81692 c 1.29175,-1.375 2.57363,-2.5 2.84863,-2.5 0.275,0 -0.55688,1.125 -1.84863,2.5 -1.29175,1.375 -2.57363,2.5 -2.84863,2.5 -0.275,0 0.55688,-1.125 1.84863,-2.5 z m 4,-4.87756 c 0,-0.20765 0.7875,-0.99515 1.75,-1.75 1.58606,-1.24387 1.62143,-1.2085 0.37756,0.37756 -1.30637,1.66575 -2.12756,2.19548 -2.12756,1.37244 z m -394.12756,-2.37244 c -1.24387,-1.58606 -1.2085,-1.62143 0.37756,-0.37756 1.66575,1.30637 2.19548,2.12756 1.37244,2.12756 -0.20765,0 -0.99515,-0.7875 -1.75,-1.75 z m 313.12756,-13.62756 c 0,-0.20765 0.7875,-0.99515 1.75,-1.75 1.58606,-1.24387 1.62143,-1.2085 0.37756,0.37756 -1.30637,1.66575 -2.12756,2.19548 -2.12756,1.37244 z m -233.59501,-3.87244 -1.90499,-2.25 2.25,1.90499 c 2.11444,1.79022 2.70524,2.59501 1.90499,2.59501 -0.18975,0 -1.20226,-1.0125 -2.25,-2.25 z m 114.88153,0.50992 c 3.18257,-0.19905 8.13258,-0.1972 11,0.004 2.86741,0.20131 0.26349,0.36417 -5.78652,0.36191 -6.05,-0.002 -8.39607,-0.16696 -5.21348,-0.36601 z m -16.53652,-0.9222 c 0.6875,-0.27741 1.8125,-0.27741 2.5,0 0.6875,0.27741 0.125,0.50439 -1.25,0.50439 -1.375,0 -1.9375,-0.22698 -1.25,-0.50439 z m 40.51903,-0.0307 c 0.97297,-0.25354 2.32297,-0.23687 3,0.0371 0.67703,0.27393 -0.11903,0.48137 -1.76903,0.46099 -1.64999,-0.0204 -2.20393,-0.2445 -1.23097,-0.49804 z m -48.45653,-0.99012 c 0.72188,-0.28887 1.58439,-0.25335 1.91668,0.0789 0.33229,0.33229 -0.25834,0.56864 -1.3125,0.52522 -1.16495,-0.048 -1.40191,-0.28494 -0.60418,-0.60416 z m 57,0 c 0.72188,-0.28887 1.58439,-0.25335 1.91668,0.0789 0.33229,0.33229 -0.25834,0.56864 -1.3125,0.52522 -1.16495,-0.048 -1.40191,-0.28494 -0.60418,-0.60416 z m -63,-1 c 0.72188,-0.28887 1.58439,-0.25335 1.91668,0.0789 0.33229,0.33229 -0.25834,0.56864 -1.3125,0.52522 -1.16495,-0.048 -1.40191,-0.28494 -0.60418,-0.60416 z m 156.1875,0.37019 c 0,-0.1721 1.4625,-1.6346 3.25,-3.25 l 3.25,-2.93709 -2.93709,3.25 c -2.73778,3.02946 -3.56291,3.70965 -3.56291,2.93709 z m -252.12756,-9.43709 c -1.24387,-1.58606 -1.2085,-1.62143 0.37756,-0.37756 1.66575,1.30637 2.19548,2.12756 1.37244,2.12756 -0.20765,0 -0.99515,-0.7875 -1.75,-1.75 z M 705.64759,400.6568 c 0.048,-1.16495 0.28494,-1.4019 0.60416,-0.60417 0.28887,0.72187 0.25335,1.58438 -0.0789,1.91667 -0.33229,0.33229 -0.56864,-0.25834 -0.52522,-1.3125 z m -349.20651,-3.16667 c -1.24387,-1.58606 -1.2085,-1.62143 0.37756,-0.37756 0.9625,0.75485 1.75,1.54235 1.75,1.75 0,0.82304 -0.82119,0.29331 -2.12756,-1.37244 z m 350.20651,-0.83333 c 0.048,-1.16495 0.28494,-1.4019 0.60416,-0.60417 0.28887,0.72187 0.25335,1.58438 -0.0789,1.91667 -0.33229,0.33229 -0.56864,-0.25834 -0.52522,-1.3125 z m -162.12074,-3.66667 c 2.45201,-2.6125 4.58951,-4.75 4.75,-4.75 0.75088,0 -0.043,0.89783 -4.45821,5.04179 l -4.75,4.45821 4.45821,-4.75 z m -195.08577,-1.5 c -1.24387,-1.58606 -1.2085,-1.62143 0.37756,-0.37756 1.66575,1.30637 2.19548,2.12756 1.37244,2.12756 -0.20765,0 -0.99515,-0.7875 -1.75,-1.75 z m 358.20651,0.16667 c 0.048,-1.16495 0.28494,-1.4019 0.60416,-0.60417 0.28887,0.72187 0.25335,1.58438 -0.0789,1.91667 -0.33229,0.33229 -0.56864,-0.25834 -0.52522,-1.3125 z m -522,-2 c 0.048,-1.16495 0.28494,-1.4019 0.60416,-0.60417 0.28887,0.72187 0.25335,1.58438 -0.0789,1.91667 -0.3323,0.33229 -0.56864,-0.25834 -0.52522,-1.3125 z m 38,0 c 0.048,-1.16495 0.28494,-1.4019 0.60416,-0.60417 0.28887,0.72187 0.25335,1.58438 -0.0789,1.91667 -0.33229,0.33229 -0.56864,-0.25834 -0.52522,-1.3125 z m 485,-3 c 0.048,-1.16495 0.28494,-1.4019 0.60416,-0.60417 0.28887,0.72187 0.25335,1.58438 -0.0789,1.91667 -0.33229,0.33229 -0.56864,-0.25834 -0.52522,-1.3125 z m -486,-1 c 0.048,-1.16495 0.28494,-1.4019 0.60416,-0.60417 0.28887,0.72187 0.25335,1.58438 -0.0789,1.91667 -0.3323,0.33229 -0.56864,-0.25834 -0.52522,-1.3125 z m -37.92106,-1.41667 c 0,-1.375 0.22698,-1.9375 0.5044,-1.25 0.27741,0.6875 0.27741,1.8125 0,2.5 -0.27742,0.6875 -0.5044,0.125 -0.5044,-1.25 z M 671.6476,382.6568 c 0.048,-1.16495 0.28494,-1.4019 0.60415,-0.60417 0.28887,0.72187 0.25335,1.58438 -0.0789,1.91667 -0.33229,0.33229 -0.56864,-0.25834 -0.52522,-1.3125 z m -450,-2 c 0.048,-1.16495 0.28494,-1.4019 0.60416,-0.60417 0.28887,0.72187 0.25335,1.58438 -0.0789,1.91667 -0.3323,0.33229 -0.56864,-0.25834 -0.52522,-1.3125 z m 488.07893,-0.41667 c 0,-1.375 0.22698,-1.9375 0.50439,-1.25 0.27741,0.6875 0.27741,1.8125 0,2.5 -0.27741,0.6875 -0.50439,0.125 -0.50439,-1.25 z m -526,-3 c 0,-1.375 0.22698,-1.9375 0.50439,-1.25 0.27741,0.6875 0.27741,1.8125 0,2.5 -0.27741,0.6875 -0.50439,0.125 -0.50439,-1.25 z m 488.92106,-0.58333 c 0.048,-1.16495 0.28494,-1.4019 0.60416,-0.60417 0.28887,0.72187 0.25335,1.58438 -0.0789,1.91667 -0.33229,0.33229 -0.56864,-0.25834 -0.52522,-1.3125 z m -451.92106,-2.41667 c 0,-1.375 0.22698,-1.9375 0.5044,-1.25 0.27741,0.6875 0.27741,1.8125 0,2.5 -0.27742,0.6875 -0.5044,0.125 -0.5044,-1.25 z m 490.07411,-4 c 0,-1.925 0.2058,-2.7125 0.45733,-1.75 0.25152,0.9625 0.25152,2.5375 0,3.5 -0.25153,0.9625 -0.45733,0.175 -0.45733,-1.75 z M 297.64759,369.6568 c 0.048,-1.16495 0.28494,-1.4019 0.60416,-0.60417 0.28887,0.72187 0.25335,1.58438 -0.0789,1.91667 -0.33229,0.33229 -0.56864,-0.25834 -0.52522,-1.3125 z m 376.15305,-1.41667 c 0,-1.925 0.2058,-2.7125 0.45733,-1.75 0.25152,0.9625 0.25152,2.5375 0,3.5 -0.25153,0.9625 -0.45733,0.175 -0.45733,-1.75 z m -490.94599,-2.5 c 0.008,-2.75 0.20172,-3.75631 0.43157,-2.23625 0.22986,1.52006 0.22371,3.77006 -0.0136,5 -0.23736,1.22994 -0.42542,-0.0137 -0.41792,-2.76375 z m 36.98635,-1.5 c 0,-2.475 0.19502,-3.4875 0.43337,-2.25 0.23836,1.2375 0.23836,3.2625 0,4.5 -0.23835,1.2375 -0.43337,0.225 -0.43337,-2.25 z m 377.8066,2.41667 c 0.048,-1.16495 0.28494,-1.4019 0.60415,-0.60417 0.28887,0.72187 0.25335,1.58438 -0.0789,1.91667 -0.33229,0.33229 -0.56864,-0.25834 -0.52522,-1.3125 z m -37,-3 c 0.048,-1.16495 0.28494,-1.4019 0.60415,-0.60417 0.28887,0.72187 0.25335,1.58438 -0.0789,1.91667 -0.33229,0.33229 -0.56864,-0.25834 -0.52522,-1.3125 z m -263.82677,-2.91667 c 0.0111,-2.2 0.21589,-2.98225 0.45508,-1.73834 0.23919,1.24391 0.23011,3.04391 -0.0202,4 -0.25029,0.95609 -0.44601,-0.0617 -0.43491,-2.26166 z m 36.94276,-2 c 0.0204,-1.65 0.24451,-2.20394 0.49804,-1.23097 0.25354,0.97297 0.23688,2.32297 -0.0371,3 -0.27393,0.67703 -0.48137,-0.11903 -0.46098,-1.76903 z m 264.96294,-2.5 c 0,-1.375 0.22698,-1.9375 0.50439,-1.25 0.27741,0.6875 0.27741,1.8125 0,2.5 -0.27741,0.6875 -0.50439,0.125 -0.50439,-1.25 z m -36.74334,-1 c 0.0849,-1.18863 1.71433,-1.51403 7.84958,-1.56756 l 7.74244,-0.0676 -7.43784,0.35845 c -4.63816,0.22353 -7.59281,0.81357 -7.84957,1.56757 -0.22646,0.66501 -0.36353,0.53411 -0.30461,-0.29089 z M 305.87058,353.494 c 5.39107,-0.18015 13.94107,-0.17936 19,0.002 5.05893,0.18111 0.64806,0.32851 -9.80194,0.32755 -10.45,-9.6e-4 -14.58913,-0.14915 -9.19806,-0.3293 z m -187.5255,-29.98737 c 2.35203,-0.21124 5.95204,-0.20827 8,0.007 2.04795,0.21487 0.12357,0.38771 -4.27643,0.38408 -4.40001,-0.004 -6.07562,-0.17944 -3.72357,-0.39069 z m -9.96393,-0.94961 c 0.72187,-0.28887 1.58437,-0.25335 1.91667,0.0789 0.33229,0.33229 -0.25834,0.56864 -1.3125,0.52522 -1.16495,-0.048 -1.4019,-0.28494 -0.60417,-0.60416 z m 25.99999,0 c 0.72187,-0.28887 1.58437,-0.25335 1.91668,0.0789 0.33229,0.33229 -0.25835,0.56864 -1.3125,0.52522 -1.16496,-0.048 -1.40191,-0.28494 -0.60418,-0.60416 z m 402,-2 c 0.72187,-0.28887 1.58438,-0.25335 1.91667,0.0789 0.33229,0.33229 -0.25834,0.56864 -1.3125,0.52522 -1.16495,-0.048 -1.4019,-0.28494 -0.60417,-0.60416 z m -311.43821,-1.7839 c -0.30962,-0.80686 -0.33103,-2.04436 -0.0476,-2.75 0.28346,-0.70564 0.55091,-0.27361 0.59433,0.96007 l 0.079,2.24306 68.25,0.264 68.25,0.26399 -68.28138,0.24295 c -59.24347,0.21078 -68.3559,0.0488 -68.84433,-1.22407 z m 171,0 c -0.30962,-0.80686 -0.33103,-2.04436 -0.0476,-2.75 0.28346,-0.70564 0.55091,-0.27878 0.59433,0.94858 l 0.079,2.23157 23.25,0.28778 23.25,0.28778 -23.28138,0.23065 c -19.68738,0.19504 -23.36829,0.004 -23.84433,-1.23636 z m 175.0075,0.0196 c -0.31375,-0.81762 -0.33853,-2.06393 -0.0551,-2.76957 0.28346,-0.70564 0.55091,-0.27049 0.59433,0.96701 l 0.079,2.24997 21.43045,0 c 20.66838,0 21.44654,-0.0717 21.88305,-2.01533 0.3765,-1.67644 0.43023,-1.6344 0.31955,0.25 l -0.13305,2.26533 -21.77388,0.26957 c -18.51554,0.22923 -21.85924,0.0471 -22.34433,-1.21701 z m 84.9925,-0.0196 c -0.30962,-0.80686 -0.33103,-2.04436 -0.0476,-2.75 0.28346,-0.70564 0.55091,-0.27672 0.59433,0.95316 l 0.0789,2.23614 32.25,0.2782 32.25,0.27821 -32.28138,0.23565 c -27.59979,0.20147 -32.36303,0.0229 -32.84433,-1.23136 z M 51.72654,317.24013 c 0,-1.375 0.226973,-1.9375 0.504386,-1.25 0.277412,0.6875 0.277412,1.8125 0,2.5 -0.277413,0.6875 -0.504386,0.125 -0.504386,-1.25 z m 58.65461,0.31689 c 0.72187,-0.28887 1.58437,-0.25335 1.91667,0.0789 0.33229,0.33229 -0.25834,0.56864 -1.3125,0.52522 -1.16495,-0.048 -1.4019,-0.28494 -0.60417,-0.60416 z m 18.99999,0 c 0.72187,-0.28887 1.58437,-0.25335 1.91668,0.0789 0.33229,0.33229 -0.25835,0.56864 -1.3125,0.52522 -1.16496,-0.048 -1.40191,-0.28494 -0.60418,-0.60416 z m 138.64509,-43.81689 c 2.5e-4,-23.1 0.13143,-32.40721 0.29152,-20.68268 0.16008,11.72452 0.15988,30.62452 -4.5e-4,42 -0.16033,11.37547 -0.2913,1.78268 -0.29107,-21.31732 z m 44.79241,40.81067 c 0.9625,-0.25152 2.53751,-0.25152 3.5,0 0.9625,0.25153 0.17501,0.45733 -1.75,0.45733 -1.925,0 -2.71249,-0.2058 -1.75,-0.45733 z m 87.5,0.0271 c 0.6875,-0.27741 1.8125,-0.27741 2.5,0 0.6875,0.27741 0.125,0.50439 -1.25,0.50439 -1.375,0 -1.9375,-0.22698 -1.25,-0.50439 z m 34,0 c 0.6875,-0.27741 1.8125,-0.27741 2.5,0 0.6875,0.27741 0.125,0.50439 -1.25,0.50439 -1.375,0 -1.9375,-0.22698 -1.25,-0.50439 z m 146.0625,-0.0208 c 0.72187,-0.28887 1.58438,-0.25335 1.91667,0.0789 0.33229,0.33229 -0.25834,0.56864 -1.3125,0.52522 -1.16495,-0.048 -1.4019,-0.28494 -0.60417,-0.60416 z m 23.4375,-0.006 c 0.9625,-0.25152 2.5375,-0.25152 3.5,0 0.9625,0.25153 0.175,0.45733 -1.75,0.45733 -1.925,0 -2.7125,-0.2058 -1.75,-0.45733 z m 206.836,-15.06097 0.086,-15.75 3.04651,6.5 c 2.86615,6.11519 8.78149,22.40831 8.78149,24.18759 0,0.44682 -2.7,0.81241 -6,0.81241 l -6,0 0.086,-15.75 z m -488.2735,14.06689 c 0.72188,-0.28887 1.58439,-0.25335 1.91668,0.0789 0.33229,0.33229 -0.25834,0.56864 -1.3125,0.52522 -1.16495,-0.048 -1.40191,-0.28494 -0.60418,-0.60416 z m 263.1875,-0.69445 c 0,-0.20765 0.7875,-0.99515 1.75,-1.75 1.58606,-1.24387 1.62143,-1.2085 0.37756,0.37756 -1.30637,1.66575 -2.12756,2.19548 -2.12756,1.37244 z m 198.23605,-0.45533 c -0.48735,-2.75189 -8.17163,-17.26151 -12.86479,-24.29161 -6.27199,-9.39507 -19.81787,-23.14912 -29.37126,-29.82263 -15.06114,-10.52094 -36.55733,-19.63945 -56.649,-24.03004 -4.73529,-1.0348 -8.93849,-2.25076 -9.34045,-2.70214 -1.09875,-1.23384 -14.11294,-39.50181 -13.25369,-38.97222 0.40873,0.25192 6.59314,1.44054 13.74314,2.64137 44.19056,7.42176 77.72862,22.50764 103.13241,46.39039 l 5.44584,5.11977 -0.30307,33.5 c -0.16669,18.425 -0.4093,32.9002 -0.53913,32.16711 z m -360.36361,-1.91711 c -1.24387,-1.58606 -1.2085,-1.62143 0.37756,-0.37756 0.9625,0.75485 1.75,1.54235 1.75,1.75 0,0.82304 -0.82119,0.29331 -2.12756,-1.37244 z m -259.87244,0.37244 c 0,-0.20765 0.7875,-0.99515 1.75,-1.75 1.58606,-1.24387 1.62143,-1.2085 0.37756,0.37756 -1.30637,1.66575 -2.12756,2.19548 -2.12756,1.37244 z m 431.19495,-2.12244 c 0.0204,-1.65 0.2445,-2.20394 0.49804,-1.23097 0.25354,0.97297 0.23687,2.32297 -0.0371,3 -0.27393,0.67703 -0.48137,-0.11903 -0.46099,-1.76903 z m -438.69495,-2.5 c 0.99549,-1.1 2.03498,-2 2.30998,-2 0.275,0 -0.31449,0.9 -1.30998,2 -0.99548,1.1 -2.03497,2 -2.30998,2 -0.275,0 0.3145,-0.9 1.30998,-2 z m -96.687495,-0.68311 c 0.721875,-0.28887 1.584375,-0.25335 1.916667,0.0789 0.332291,0.33229 -0.258334,0.56864 -1.3125,0.52522 -1.164943,-0.048 -1.4019,-0.28494 -0.604167,-0.60416 z m 284.187495,0.3702 c 0,-0.1721 1.4625,-1.6346 3.25,-3.25 l 3.25,-2.93709 -2.93709,3.25 c -2.73778,3.02946 -3.56291,3.70965 -3.56291,2.93709 z m 77.15789,-2.68709 c 0,-1.375 0.22699,-1.9375 0.5044,-1.25 0.2774,0.6875 0.2774,1.8125 0,2.5 -0.27741,0.6875 -0.5044,0.125 -0.5044,-1.25 z m -344.704935,-3.25 -3.95295,-4.25 4.25,3.95295 c 2.3375,2.17412 4.25,4.08662 4.25,4.25 0,0.75658 -0.87085,-4.9e-4 -4.54705,-3.95295 z m 87.047045,-0.75 c 0.99549,-1.1 2.03498,-2 2.30998,-2 0.275,0 -0.31449,0.9 -1.30998,2 -0.99548,1.1 -2.03497,2 -2.30998,2 -0.275,0 0.3145,-0.9 1.30998,-2 z m 251.5,-39.79953 0,-35.79954 -11.25,-1.23859 c -17.65789,-1.9441 -33.63067,-5.54747 -60.531,-13.65549 -13.69821,-4.12877 -25.1948,-7.50685 -25.54797,-7.50685 -0.35317,0 -0.76113,13.8375 -0.90658,30.75 l -0.26445,30.75 -2.25,0.31955 c -2.01848,0.28667 -2.23352,-0.0735 -2.08996,-3.5 0.15472,-3.69277 0.17342,-3.71167 0.56336,-0.56955 0.24464,1.97136 0.96853,3.25 1.83996,3.25 1.21983,0 1.43664,-4.98016 1.43664,-33 0,-28.66667 -0.19697,-33 -1.5,-33 -1.00184,0 -1.53852,1.07933 -1.61599,3.25 -0.0638,1.7875 -0.30607,2.54419 -0.53837,1.68154 -0.25009,-0.92872 -4.99529,-3.33051 -11.634,-5.88854 -6.1664,-2.37605 -15.59096,-6.50774 -20.94347,-9.18154 -5.35251,-2.6738 -9.96501,-4.86146 -10.25,-4.86146 -0.28499,0 -0.51817,10.32754 -0.51817,22.9501 l 0,22.95009 5.50502,0.38211 5.505,0.38211 -5.755,-0.0822 -5.75502,-0.0822 -0.0426,-34.5 c -0.0234,-18.975 0.13073,-37.0875 0.34255,-40.25 l 0.38513,-5.75 7.43143,0 c 7.05691,0 8.04755,0.30225 19.65744,5.99776 12.63266,6.19724 44.93575,17.44216 47.888,16.67013 1.35507,-0.35436 1.87848,0.74344 2.75543,5.77924 0.59542,3.41918 1.08259,7.19234 1.08259,8.38478 0,1.5483 0.6114,2.16809 2.13874,2.16809 2.05858,0 2.12076,-0.32795 1.65908,-8.75 -0.26381,-4.8125 -0.30338,-7.80189 -0.0879,-6.64308 0.31852,1.71326 2.29737,2.68924 10.59091,5.22355 15.02227,4.59045 29.80774,7.92452 41.92907,9.45486 l 10.72987,1.35466 0.27013,-20.06999 c 0.14857,-11.0385 0.36296,13.3425 0.47641,54.18 0.11345,40.8375 9.5e-4,74.25 -0.25,74.25 -0.25098,0 -0.45631,-16.10979 -0.45631,-35.79953 z m -58.92104,24.2162 c 0.048,-1.16495 0.28494,-1.4019 0.60415,-0.60417 0.28887,0.72187 0.25336,1.58438 -0.0789,1.91667 -0.33229,0.33229 -0.56865,-0.25834 -0.52522,-1.3125 z m 1.20705,-8.91667 c 0.008,-2.75 0.20172,-3.75631 0.43157,-2.23625 0.22986,1.52006 0.22371,3.77006 -0.0136,5 -0.23736,1.22994 -0.42541,-0.0137 -0.41791,-2.76375 z m -181.95787,-8 c 0.004,-3.85 0.18518,-5.30246 0.40166,-3.2277 0.21647,2.07477 0.21284,5.22477 -0.008,7 -0.22091,1.77524 -0.39803,0.0777 -0.39359,-3.7723 z m 356.5443,2.80804 c -0.93255,-1.14966 -0.9718,-1.45126 -0.12244,-0.94098 0.9853,0.59195 1.25,-4.04044 1.25,-21.87534 l 0,-22.62632 -16.02167,0.22135 -16.02166,0.22135 -12.75643,-18.40405 -12.75641,-18.40405 28.7507,0.23991 28.75068,0.23991 0.30713,-14.23991 c 0.16893,-7.83195 0.40625,10.84759 0.5274,41.51009 0.12114,30.6625 0.0504,55.75 -0.1573,55.75 -0.20765,0 -0.99515,-0.76138 -1.75,-1.69196 z m -173.12244,-1.97032 c 0.6875,-0.27741 1.8125,-0.27741 2.5,0 0.6875,0.27741 0.125,0.50439 -1.25,0.50439 -1.375,0 -1.9375,-0.22698 -1.25,-0.50439 z m -168.59211,-5.33772 c 0,-1.375 0.22698,-1.9375 0.5044,-1.25 0.27741,0.6875 0.27741,1.8125 0,2.5 -0.27742,0.6875 -0.5044,0.125 -0.5044,-1.25 z m 1.15199,-13.5 c 0.006,-3.3 0.19229,-4.52944 0.41486,-2.73209 0.22256,1.79735 0.21797,4.49735 -0.0102,6 -0.22818,1.50265 -0.41027,0.0321 -0.40466,-3.26791 z m -138.15198,-0.5 c 0,-1.375 0.226973,-1.9375 0.504386,-1.25 0.277412,0.6875 0.277412,1.8125 0,2.5 -0.277413,0.6875 -0.504386,0.125 -0.504386,-1.25 z m -1.041894,-8.18358 c -0.09174,-2.12222 -0.691247,-2.77072 -2.866001,-3.10017 l -2.75,-0.41659 2.781385,-0.14983 c 2.958684,-0.15938 4.207482,1.49941 3.41919,4.54176 -0.313976,1.21176 -0.506845,0.92302 -0.584574,-0.87517 z m 253.808304,-1.56642 -2.42431,-2.75 2.75,2.42431 c 2.57029,2.26589 3.2086,3.07569 2.42431,3.07569 -0.17912,0 -1.41662,-1.2375 -2.75,-2.75 z m -142.97814,-2 -3.44617,-3.75 3.75,3.44617 c 3.49042,3.20761 4.20979,4.05383 3.44617,4.05383 -0.16711,0 -1.85461,-1.6875 -3.75,-3.75 z m 27.13278,-1.83333 c 0.048,-1.16495 0.28494,-1.4019 0.60416,-0.60417 0.28887,0.72187 0.25336,1.58438 -0.0789,1.91667 -0.3323,0.33229 -0.56864,-0.25834 -0.52522,-1.3125 z m 100.67105,-2.07895 c 0.6875,-0.27741 1.8125,-0.27741 2.5,0 0.6875,0.27741 0.125,0.50439 -1.25,0.50439 -1.375,0 -1.9375,-0.22698 -1.25,-0.50439 z m 357.10418,-3.23966 c -0.37747,-1.09448 -15.1956,-3.07619 -23.10417,-3.08986 -2.6125,-0.005 -4.74994,-0.1207 -4.74987,-0.2582 5.6e-4,-1.08412 11.91112,-37.96283 11.94974,-37 0.0276,0.6875 0.83763,1.2505 1.80013,1.25112 1.38328,8.8e-4 3.141,4.13962 8.38783,19.75 3.6508,10.86188 6.51018,19.8895 6.35416,20.06138 -0.15602,0.17187 -0.44303,-0.14962 -0.63782,-0.71444 z m -358.04168,-2.78117 c 0.72188,-0.28887 1.58439,-0.25335 1.91668,0.0789 0.33229,0.33229 -0.25834,0.56864 -1.3125,0.52522 -1.16495,-0.048 -1.40191,-0.28494 -0.60418,-0.60416 z m 325.06673,-0.0583 c -0.48897,-1.31099 -20.77649,-2.18594 -51.62923,-2.22664 l -24.25,-0.0319 0,-18.5 0,-18.5 12.75,0.0154 c 13.67048,0.0165 74.45124,1.85252 74.86005,2.26134 0.13521,0.13521 -2.36358,8.74023 -5.55287,19.12226 -3.18929,10.38202 -5.96937,18.41887 -6.17795,17.85965 z m -188.12923,-2.05849 -5.75,-0.29991 0,-18.38058 0,-18.38059 11.15672,0.58857 c 9.42159,0.49703 11.03177,0.36958 10.3533,-0.81951 -0.53647,-0.94022 -0.47037,-1.07581 0.19896,-0.40808 1.39051,1.38722 26.29102,37.49997 26.29102,38.1294 0,0.49282 -30.51504,0.18276 -42.25,-0.4293 z m -121.25,-4.2001 c 0.9955,-1.1 2.03499,-2 2.30998,-2 0.275,0 -0.31448,0.9 -1.30998,2 -0.99549,1.1 -2.03498,2 -2.30998,2 -0.27499,0 0.31449,-0.9 1.30998,-2 z m -177.68749,0.31689 c 0.72186,-0.28887 1.58436,-0.25335 1.91667,0.0789 0.33229,0.33229 -0.25835,0.56864 -1.3125,0.52522 -1.16495,-0.048 -1.4019,-0.28494 -0.60417,-0.60416 z m -20,-4 c 0.72187,-0.28887 1.58437,-0.25335 1.91667,0.0789 0.33229,0.33229 -0.25834,0.56864 -1.3125,0.52522 -1.16495,-0.048 -1.4019,-0.28494 -0.60417,-0.60416 z m 72.05994,-8.06689 c -1.24387,-1.58606 -1.2085,-1.62143 0.37755,-0.37756 1.66575,1.30637 2.19548,2.12756 1.37245,2.12756 -0.20765,0 -0.99515,-0.7875 -1.75,-1.75 z m 131.20651,0.16667 c 0.048,-1.16495 0.28494,-1.4019 0.60415,-0.60417 0.28887,0.72187 0.25336,1.58438 -0.0789,1.91667 -0.33229,0.33229 -0.56865,-0.25834 -0.52522,-1.3125 z m -135.67397,-5.66667 -1.90499,-2.25 2.25,1.90499 c 2.11444,1.79022 2.70524,2.59501 1.90499,2.59501 -0.18976,0 -1.20226,-1.0125 -2.25,-2.25 z m -113.458818,-6.5 -3.446167,-3.75 3.75,3.44617 c 3.490419,3.20761 4.209787,4.05383 3.446167,4.05383 -0.167108,0 -1.854608,-1.6875 -3.75,-3.75 z m 107.926268,2 c -1.24387,-1.58606 -1.2085,-1.62143 0.37756,-0.37756 1.66575,1.30637 2.19548,2.12756 1.37244,2.12756 -0.20765,0 -0.99515,-0.7875 -1.75,-1.75 z m 555.87756,-3.91228 c 0.6875,-0.27741 1.8125,-0.27741 2.5,0 0.6875,0.27741 0.125,0.50439 -1.25,0.50439 -1.375,0 -1.9375,-0.22698 -1.25,-0.50439 z m 140.67719,-0.66686 c -0.28052,-0.73103 -0.35893,-5.34353 -0.17425,-10.25 l 0.33579,-8.92086 0.20563,9.75 c 0.1668,7.90861 0.48893,9.75 1.70564,9.75 1.29411,0 1.5,-3.49927 1.5,-25.49347 l 0,-25.49347 -72.75,-0.26646 -72.75,-0.26647 73,0.01 73,0.01 0.2666,26.25 c 0.2628,25.87515 0.23736,26.25 -1.78138,26.25 -1.12639,0 -2.27751,-0.59811 -2.55803,-1.32914 z M 54.027526,187.1736 c -0.362533,-0.58659 -0.444683,-1.281 -0.182555,-1.54313 0.262128,-0.26213 0.743066,0.21781 1.068751,1.06653 0.676184,1.76211 0.09985,2.07206 -0.886196,0.4766 z m 674.850984,-8.43347 c 0.006,-3.3 0.19231,-4.52944 0.41486,-2.73209 0.22257,1.79735 0.21797,4.49735 -0.0102,6 -0.22818,1.50265 -0.41027,0.0321 -0.40466,-3.26791 z m -614.49736,0.81689 c 0.72187,-0.28887 1.58437,-0.25335 1.91667,0.0789 0.33229,0.33229 -0.25834,0.56864 -1.3125,0.52522 -1.16495,-0.048 -1.4019,-0.28494 -0.60417,-0.60416 z m -6,-1 c 0.72187,-0.28887 1.58437,-0.25335 1.91667,0.0789 0.33229,0.33229 -0.25834,0.56864 -1.3125,0.52522 -1.16495,-0.048 -1.4019,-0.28494 -0.60417,-0.60416 z m -6,-1 c 0.72187,-0.28887 1.58437,-0.25335 1.91667,0.0789 0.33229,0.33229 -0.25834,0.56864 -1.3125,0.52522 -1.16495,-0.048 -1.4019,-0.28494 -0.60417,-0.60416 z m -6.000005,-1 c 0.72187,-0.28887 1.58437,-0.25335 1.91667,0.0789 0.33229,0.33229 -0.25834,0.56864 -1.3125,0.52522 -1.16495,-0.048 -1.4019,-0.28494 -0.60417,-0.60416 z m -5,-1 c 0.72187,-0.28887 1.58437,-0.25335 1.91667,0.0789 0.33229,0.33229 -0.25834,0.56864 -1.3125,0.52522 -1.16495,-0.048 -1.4019,-0.28494 -0.60417,-0.60416 z M 864.64759,168.6568 c 0.048,-1.16495 0.28494,-1.4019 0.60416,-0.60417 0.28887,0.72187 0.25335,1.58438 -0.0789,1.91667 -0.33229,0.33229 -0.56864,-0.25834 -0.52522,-1.3125 z M 47.72654,167.24013 c 0,-1.375 0.226973,-1.9375 0.504386,-1.25 0.277412,0.6875 0.277412,1.8125 0,2.5 -0.277413,0.6875 -0.504386,0.125 -0.504386,-1.25 z m 24.788275,-1.75 -3.44617,-3.75 3.75,3.44617 c 3.49042,3.20761 4.20979,4.05383 3.44617,4.05383 -0.16711,0 -1.85461,-1.6875 -3.75,-3.75 z M 233.36176,155.16576 c -26.99302,-24.61929 -45.08618,-59.14011 -49.70501,-94.83463 -1.39026,-10.74415 -1.40133,-34.65093 -0.0207,-44.76864 4.81906,-35.31557 20.46908,-65.07122 49.35947,-93.84799 39.60643,-39.45067 94.37599,-63.71029 162.39985,-71.93337 48.87021,-5.90768 100.52049,-3.02227 144.57661,8.07669 50.65859,12.76229 99.51979,40.87447 129.28236,74.38231 26.99053,30.38697 39.43067,63.21055 42.06899,111 0.40992,7.425 0.60564,15.1875 0.43493,17.25 l -0.31036,3.75 -17.93964,0 -17.93963,0 -0.0552,-4.25 c -0.058,-4.46049 -0.45235,-10.93226 -1.47783,-24.25 -2.40489,-31.23199 -12.98219,-57.52189 -31.25564,-77.68592 -33.2109,-36.64691 -80.08793,-60.28312 -139.32002,-70.24755 -18.91177,-3.18147 -31.07628,-4.06653 -55.8913,-4.06653 -43.14826,0 -73.68275,4.44109 -107.5,15.63532 -63.18396,20.91526 -109.73921,65.7714 -118.85279,114.51509 -6.11725,32.71795 0.2818,65.48517 17.98414,92.09016 6.71592,10.09339 20.88759,24.766 30.47796,31.55528 l 6.6093,4.6789 36.3907,0.26263 36.39069,0.26262 0.12181,2.76237 c 0.11224,2.54532 0.0873,2.56436 -0.31715,0.2424 l -0.43897,-2.51998 -61.68285,0.25761 c -54.04802,0.22572 -61.68284,0.44326 -61.68284,1.7576 0,1.19703 1.7673,1.55836 8.75,1.78893 l 8.75,0.28894 0,7.46106 c 0,4.10359 -0.33749,7.4509 -0.75,7.43846 -0.4125,-0.0124 -4.2181,-3.18573 -8.45688,-7.05176 z m 116.45907,3.57437 c 0.0111,-2.2 0.21589,-2.98225 0.45508,-1.73834 0.23919,1.24391 0.23011,3.04391 -0.0202,4 -0.25029,0.95609 -0.44601,-0.0617 -0.43491,-2.26166 z m -302.89723,-6 c -0.003,-4.95 0.166052,-7.10108 0.375776,-4.78017 0.209724,2.3209 0.212217,6.3709 0.0055,9 -0.206636,2.62909 -0.378228,0.73017 -0.381276,-4.21983 z m 491.80293,6.5 c 0,-1.375 0.22698,-1.9375 0.50439,-1.25 0.27741,0.6875 0.27741,1.8125 0,2.5 -0.27741,0.6875 -0.50439,0.125 -0.50439,-1.25 z m -365.88886,-0.69299 c 0.97297,-0.25354 2.32297,-0.23687 3,0.0371 0.67703,0.27393 -0.11903,0.48137 -1.76903,0.46099 -1.65,-0.0204 -2.20394,-0.2445 -1.23097,-0.49804 z m -2.11114,-3.30701 c 0,-1.375 0.22698,-1.9375 0.5044,-1.25 0.27741,0.6875 0.27741,1.8125 0,2.5 -0.27742,0.6875 -0.5044,0.125 -0.5044,-1.25 z m 371.34211,-4 c 0.99549,-1.1 2.03498,-2 2.30998,-2 0.275,0 -0.31449,0.9 -1.30998,2 -0.99549,1.1 -2.03498,2 -2.30998,2 -0.275,0 0.31449,-0.9 1.30998,-2 z m 207.3125,-2.68311 c 0.72187,-0.28887 1.58438,-0.25335 1.91667,0.0789 0.33229,0.33229 -0.25834,0.56864 -1.3125,0.52522 -1.16495,-0.048 -1.4019,-0.28494 -0.60417,-0.60416 z m 95,0 c 0.72187,-0.28887 1.58438,-0.25335 1.91667,0.0789 0.33229,0.33229 -0.25834,0.56864 -1.3125,0.52522 -1.16495,-0.048 -1.4019,-0.28494 -0.60417,-0.60416 z M 62.647592,146.6568 c 0.04798,-1.16495 0.284941,-1.4019 0.604167,-0.60417 0.288871,0.72187 0.253344,1.58438 -0.07895,1.91667 -0.332292,0.33229 -0.568641,-0.25834 -0.52522,-1.3125 z m 249.190078,0.89034 c 0.97297,-0.25354 2.32297,-0.23687 3,0.0371 0.67703,0.27393 -0.11903,0.48137 -1.76903,0.46099 -1.64999,-0.0204 -2.20393,-0.2445 -1.23097,-0.49804 z m 204.48097,0.0307 c 0.6875,-0.27741 1.8125,-0.27741 2.5,0 0.6875,0.27741 0.125,0.50439 -1.25,0.50439 -1.375,0 -1.9375,-0.22698 -1.25,-0.50439 z m 35.0625,-0.0208 c 0.72187,-0.28887 1.58438,-0.25335 1.91667,0.0789 0.33229,0.33229 -0.25834,0.56864 -1.3125,0.52522 -1.16495,-0.048 -1.4019,-0.28494 -0.60417,-0.60416 z m 204.4375,-0.006 c 0.9625,-0.25152 2.5375,-0.25152 3.5,0 0.9625,0.25153 0.175,0.45733 -1.75,0.45733 -1.925,0 -2.7125,-0.2058 -1.75,-0.45733 z m 80,0 c 0.9625,-0.25152 2.5375,-0.25152 3.5,0 0.9625,0.25153 0.175,0.45733 -1.75,0.45733 -1.925,0 -2.7125,-0.2058 -1.75,-0.45733 z m -439.84827,-2.81091 c 0.0954,-1.94211 0.80747,-2.0008 24.59827,-2.0278 l 24.5,-0.0278 -24.18275,0.29542 c -21.96709,0.26836 -24.22083,0.45416 -24.59828,2.02781 -0.30884,1.2876 -0.39029,1.21889 -0.31724,-0.26763 z m 115,0 c 0.0953,-1.93918 0.79771,-2 23.09828,-2 l 23,0 0.13305,2.26533 c 0.11068,1.8844 0.057,1.92644 -0.31955,0.25 -0.43723,-1.94686 -1.21232,-2.01533 -22.81351,-2.01533 -20.47025,0 -22.39622,0.14797 -22.77873,1.75 -0.31805,1.33212 -0.39436,1.27243 -0.31955,-0.25 z m -449.081651,-9.5 c 0,-3.575 0.181495,-5.0375 0.403322,-3.25 0.221826,1.7875 0.221826,4.7125 0,6.5 -0.221827,1.7875 -0.403322,0.325 -0.403322,-3.25 z m -14.241127,2.41667 c 0.04798,-1.16495 0.284941,-1.4019 0.604167,-0.60417 0.288871,0.72187 0.253344,1.58438 -0.07895,1.91667 -0.332292,0.33229 -0.568641,-0.25834 -0.52522,-1.3125 z m 15,-14 c 0.04798,-1.16495 0.284941,-1.4019 0.604167,-0.60417 0.288871,0.72187 0.253344,1.58438 -0.07895,1.91667 -0.332292,0.33229 -0.568641,-0.25834 -0.52522,-1.3125 z m 215.421048,-7.41667 c 2.14824,-2.2 4.1309,-4 4.4059,-4 0.275,0 -1.25766,1.8 -3.4059,4 -2.14823,2.2 -4.1309,4 -4.40589,4 -0.275,0 1.25766,-1.8 3.40589,-4 z m -129.53416,-10.75 -5.46584,-5.75 5.75,5.46584 c 3.1625,3.00621 5.75,5.59371 5.75,5.75 0,0.74225 -0.95622,-0.12391 -6.03415,-5.46584 z m 140.53416,-1.25 c 2.14824,-2.2 4.1309,-4 4.4059,-4 0.275,0 -1.25766,1.8 -3.4059,4 -2.14823,2.2 -4.1309,4 -4.40589,4 -0.275,0 1.25766,-1.8 3.40589,-4 z m -229.499995,2.62244 c 0,-0.20765 0.7875,-0.99515 1.75,-1.75 1.586056,-1.24387 1.621426,-1.2085 0.377555,0.37756 -1.306369,1.66575 -2.127555,2.19548 -2.127555,1.37244 z m 14,-5.12244 c 1.86578,-1.925 3.61733,-3.5 3.89233,-3.5 0.275,0 -1.02655,1.575 -2.89233,3.5 -1.86578,1.925 -3.61733,3.5 -3.89233,3.5 -0.275,0 1.02655,-1.575 2.89233,-3.5 z m 88.749995,1.83772 c 0.6875,-0.27741 1.8125,-0.27741 2.5,0 0.6875,0.27741 0.125,0.50439 -1.25,0.50439 -1.375,0 -1.9375,-0.22698 -1.25,-0.50439 z m -98.749995,-1.71528 c 0,-0.20765 0.7875,-0.99515 1.75,-1.75 1.586056,-1.24387 1.621426,-1.2085 0.377555,0.37756 -1.306369,1.66575 -2.127555,2.19548 -2.127555,1.37244 z M 170.6476,96.6568 c 0.048,-1.16495 0.28494,-1.4019 0.60416,-0.60417 0.28887,0.72187 0.25335,1.58438 -0.0789,1.91667 -0.3323,0.33229 -0.56864,-0.25834 -0.52522,-1.3125 z m 129.42104,-4.41667 c 2.14824,-2.2 4.1309,-4 4.4059,-4 0.275,0 -1.25766,1.8 -3.4059,4 -2.14823,2.2 -4.1309,4 -4.40589,4 -0.275,0 1.25766,-1.8 3.40589,-4 z M 172.83767,90.54714 c 0.97297,-0.25354 2.32297,-0.23687 3,0.0371 0.67703,0.27393 -0.11903,0.48137 -1.76903,0.46099 -1.65,-0.0204 -2.20393,-0.2445 -1.23097,-0.49804 z m -71.50736,-1.01427 c 1.24391,-0.23919 3.04391,-0.23011 4,0.0202 0.95609,0.25029 -0.0617,0.446 -2.26166,0.4349 -2.2,-0.0111 -2.98225,-0.21589 -1.73834,-0.45508 z m 11,0 c 1.24391,-0.23919 3.04391,-0.23011 4,0.0202 0.95609,0.25029 -0.0617,0.446 -2.26166,0.4349 -2.2,-0.0111 -2.98225,-0.21589 -1.73834,-0.45508 z M 98.381145,84.55702 c 0.72187,-0.28887 1.58437,-0.25335 1.916675,0.0789 0.33229,0.33229 -0.25834,0.56864 -1.312505,0.52522 -1.16495,-0.048 -1.4019,-0.28494 -0.60417,-0.60416 z m 17.937505,0.0208 c 0.6875,-0.27741 1.8125,-0.27741 2.5,0 0.6875,0.27741 0.125,0.50439 -1.25,0.50439 -1.375,0 -1.9375,-0.22698 -1.25,-0.50439 z M 297.56864,58.8506 c 0,-13.22596 5.79947,-30.80577 14.56403,-44.14769 18.78702,-28.59866 57.31458,-48.79206 104.93597,-54.99995 14.22605,-1.85449 43.88507,-2.08418 57.5,-0.44529 39.88109,4.80064 73.80236,18.98327 95.35706,39.86919 17.03814,16.5095 26.22797,35.03892 28.2689,56.99854 l 0.66124,7.11473 -17.92227,0 -17.92227,0 -1.11765,-7.09792 C 557.42277,27.74868 528.84036,6.24198 483.32404,-2.97713 c -9.94207,-2.01372 -14.1725,-2.27887 -36.2554,-2.27237 -26.70336,0.008 -33.01854,0.74537 -51.72325,6.04039 -32.5589,9.21694 -54.33093,27.28302 -60.24556,49.99079 -0.84215,3.23326 -1.53119,7.3591 -1.53119,9.16855 l 0,3.2899 -18,0 -18,0 0,-4.38953 z M -28.681355,-125.49208 c 2.3375,-0.21053 6.1625,-0.21053 8.5,0 2.3375,0.21054 0.425,0.3828 -4.25,0.3828 -4.675,0 -6.5875,-0.17226 -4.25,-0.3828 z m 957.999995,0 c 2.3375,-0.21053 6.1625,-0.21053 8.5,0 2.3375,0.21054 0.425,0.3828 -4.25,0.3828 -4.675,0 -6.5875,-0.17226 -4.25,-0.3828 z M 84.918055,-236.75987 c 0,-4.675 0.17226,-6.5875 0.3828,-4.25 0.21053,2.3375 0.21053,6.1625 0,8.5 -0.21054,2.3375 -0.3828,0.425 -0.3828,-4.25 z"
         id="path3074"
         inkscape:connector-curvature="0" />
      <path
         style="fill:#dc0425"
         d="m 85.568645,725.24013 0,-8 368.499995,0 368.5,0 0,8 0,8 -368.5,0 -368.499995,0 0,-8 z M 422.06864,459.19845 C 373.03784,452.78094 335.78352,434.9068 315.594,408.11329 304.20553,392.99964 299.05171,379.40455 297.16125,359.49013 l -0.49838,-5.25 18.3152,0 18.31521,0 0.65521,5.57487 c 3.69898,31.47253 37.17352,55.10473 88.62015,62.56364 14.41726,2.09026 43.3637,1.57941 58.5,-1.03242 29.80757,-5.14342 53.62012,-16.32402 67.1872,-31.54612 5.47035,-6.13766 11.99779,-19.0652 12.83116,-25.41201 0.33567,-2.55638 0.84211,-5.88546 1.12543,-7.39796 l 0.51512,-2.75 18.06807,0 18.06807,0 -0.64376,8.37515 c -3.67127,47.76183 -44.06964,82.36752 -110.65129,94.7851 -12.06304,2.24978 -53.38274,3.38407 -65.5,1.79807 z m -336.499995,-695.95832 0,-8 368.499995,0 368.5,0 0,8 0,8 -368.5,0 -368.499995,0 0,-8 z"
         id="path3072"
         inkscape:connector-curvature="0" />
      <path
         style="fill:#005f99"
         d="m -32.431355,246.24013 0,-371 8,0 8,0 0,371 0,371 -8,0 -8,0 0,-371 z m 957.999995,0 0,-371 8,0 8,0 0,371 0,371 -8,0 -8,0 0,-371 z m -501,309.3115 c -81.47424,-6.13932 -150.82639,-35.12492 -194.1044,-81.12556 -28.87227,-30.68865 -44.4782,-67.24563 -47.3578,-110.93594 l -0.60965,-9.25 18.53593,0 18.53593,0 0,5.62166 c 0,8.99629 2.89641,26.02622 6.18145,36.34484 23.52821,73.90448 112.54029,123.13743 222.81854,123.24185 23.15884,0.0219 34.3846,-0.837 55.97091,-4.28253 43.26295,-6.90549 84.59139,-23.79161 113.48998,-46.37014 10.3181,-8.06155 25.58172,-24.01189 32.25425,-33.7054 14.2588,-20.71444 22.78112,-45.58255 24.0234,-70.10028 l 0.54469,-10.75 18.35838,0 18.35839,0 0,4.39405 c 0,14.30419 -3.86479,36.78626 -9.21515,53.60595 -17.95184,56.43437 -66.90961,101.25173 -136.78485,125.21685 -25.92676,8.89211 -58.40743,15.44298 -87.94988,17.7382 -12.37559,0.96148 -42.34813,1.16287 -53.05012,0.35645 z M 47.025789,278.24013 c 0,-22.825 0.131272,-32.1625 0.291716,-20.75 0.160444,11.4125 0.160444,30.0875 0,41.5 -0.160444,11.4125 -0.291716,2.075 -0.291716,-20.75 z m 70.792861,40.28375 c 1.51249,-0.22913 3.9875,-0.22913 5.5,0 1.51249,0.22912 0.275,0.41659 -2.75,0.41659 -3.02501,0 -4.2625,-0.18747 -2.75,-0.41659 z m 243.18569,-24.78375 c 5.7e-4,-14.3 0.14103,-20.01094 0.31212,-12.69097 0.17108,7.31996 0.17061,19.01996 -0.001,26 -0.17171,6.98003 -0.31168,0.99097 -0.31112,-13.30903 z m 358.5643,24.20711 c 0,-1.343 -1.43684,-1.6849 -8.25,-1.96312 l -8.25,-0.3369 8.28138,-0.20354 c 6.67078,-0.16396 8.39656,0.0966 8.87354,1.33958 0.3257,0.84872 0.31156,1.82372 -0.0314,2.16666 -0.34294,0.34295 -0.62353,-0.10826 -0.62353,-1.00268 z m -485.75624,-2.43032 8.74377,-0.35447 0.2656,-75.71116 0.26561,-75.71116 -0.009,76 -0.009,76 -9,0.0656 -9,0.0656 8.74376,-0.35447 z m 43.50624,-0.0219 c 5.0875,-0.18149 13.41251,-0.18149 18.5,0 5.0875,0.18149 0.92501,0.32999 -9.25,0.32999 -10.175,0 -14.33749,-0.1485 -9.25,-0.32999 z m 295.51903,0.0521 c 0.97297,-0.25354 2.32297,-0.23687 3,0.0371 0.67703,0.27393 -0.11903,0.48137 -1.76903,0.46099 -1.65,-0.0204 -2.20394,-0.2445 -1.23097,-0.49804 z m 89.01748,-0.0471 c 3.18258,-0.19905 8.13258,-0.1972 11,0.004 2.86742,0.20131 0.26349,0.36417 -5.78651,0.36191 -6.05,-0.002 -8.39607,-0.16696 -5.21349,-0.36601 z m 108.96349,0.005 c 2.6125,-0.206 6.8875,-0.206 9.5,0 2.6125,0.206 0.475,0.37454 -4.75,0.37454 -5.225,0 -7.3625,-0.16854 -4.75,-0.37454 z m 53,0.0457 c 0.9625,-0.25152 2.5375,-0.25152 3.5,0 0.9625,0.25153 0.175,0.45733 -1.75,0.45733 -1.925,0 -2.7125,-0.2058 -1.75,-0.45733 z M 414.82083,298.74013 c 0.0111,-2.2 0.21589,-2.98225 0.45508,-1.73834 0.23919,1.24391 0.23011,3.04391 -0.0202,4 -0.25029,0.95609 -0.44601,-0.0617 -0.43491,-2.26166 z m 395.2374,-84 0.0104,-68 8.5,-0.0687 8.5,-0.0687 -8.24307,0.359 -8.24307,0.359 -0.26734,67.70967 -0.26733,67.70967 0.0104,-68 z M 311.6476,254.6568 c 0.048,-1.16495 0.28494,-1.4019 0.60415,-0.60417 0.28887,0.72187 0.25336,1.58438 -0.0789,1.91667 -0.33229,0.33229 -0.56865,-0.25834 -0.52522,-1.3125 z m -38.79879,-23.15294 c 2.6291,-0.20668 6.6791,-0.20418 9,0.006 2.32092,0.20972 0.16983,0.37882 -4.78017,0.37577 -4.94999,-0.003 -6.84892,-0.17464 -4.21983,-0.38131 z m 7.98886,-3.95672 c 0.97297,-0.25354 2.32297,-0.23687 3,0.0371 0.67703,0.27393 -0.11903,0.48137 -1.76903,0.46099 -1.64999,-0.0204 -2.20393,-0.2445 -1.23097,-0.49804 z M 414.9386,213.24013 c 0,-5.775 0.16528,-8.1375 0.36728,-5.25 0.202,2.8875 0.202,7.6125 0,10.5 -0.202,2.8875 -0.36728,0.525 -0.36728,-5.25 z M 311.64759,203.6568 c 0.048,-1.16495 0.28494,-1.4019 0.60416,-0.60417 0.28887,0.72187 0.25335,1.58438 -0.0789,1.91667 -0.33229,0.33229 -0.56864,-0.25834 -0.52522,-1.3125 z m 103.26386,-8.91667 c 0.004,-4.4 0.17944,-6.07561 0.39069,-3.72357 0.21124,2.35204 0.20828,5.95204 -0.007,8 -0.21487,2.04796 -0.38771,0.12357 -0.38408,-4.27643 z m 310.09289,-26 c 5.7e-4,-14.3 0.14102,-20.01094 0.31211,-12.69097 0.17108,7.31996 0.17062,19.01996 -10e-4,26 -0.17166,6.98003 -0.31164,0.99097 -0.31107,-13.30903 z M 349.6476,163.6568 c 0.048,-1.16495 0.28494,-1.4019 0.60415,-0.60417 0.28887,0.72187 0.25336,1.58438 -0.0789,1.91667 -0.33229,0.33229 -0.56865,-0.25834 -0.52522,-1.3125 z m -81.92107,-3.41667 c 0,-1.375 0.22699,-1.9375 0.5044,-1.25 0.2774,0.6875 0.2774,1.8125 0,2.5 -0.27741,0.6875 -0.5044,0.125 -0.5044,-1.25 z m 0.14178,-8 c 0,-3.025 0.18747,-4.2625 0.41658,-2.75 0.22913,1.5125 0.22913,3.9875 0,5.5 -0.22912,1.5125 -0.41658,0.275 -0.41658,-2.75 z m 80.77929,-2.58333 c 0.048,-1.16495 0.28494,-1.4019 0.60415,-0.60417 0.28887,0.72187 0.25336,1.58438 -0.0789,1.91667 -0.33229,0.33229 -0.56865,-0.25834 -0.52522,-1.3125 z m -60.32896,-3.15391 c 2.8875,-0.202 7.61251,-0.202 10.5,0 2.8875,0.202 0.525,0.36728 -5.25,0.36728 -5.77499,0 -8.13749,-0.16528 -5.25,-0.36728 z m 112.5,0.002 c 2.61251,-0.206 6.8875,-0.206 9.5,0 2.61251,0.206 0.47501,0.37454 -4.75,0.37454 -5.225,0 -7.3625,-0.16854 -4.75,-0.37454 z m 371.5,0.003 c 2.3375,-0.21053 6.1625,-0.21053 8.5,0 2.3375,0.21054 0.425,0.3828 -4.25,0.3828 -4.675,0 -6.5875,-0.17226 -4.25,-0.3828 z M 101.38115,84.55699 c 0.72187,-0.28887 1.58437,-0.25335 1.91667,0.0789 0.33229,0.33229 -0.25834,0.56864 -1.3125,0.52522 -1.16495,-0.048 -1.4019,-0.28494 -0.60417,-0.60416 z m 215.99999,-6 c 0.72188,-0.28887 1.58439,-0.25335 1.91668,0.0789 0.33229,0.33229 -0.25834,0.56864 -1.3125,0.52522 -1.16495,-0.048 -1.40191,-0.28494 -0.60418,-0.60416 z"
         id="path3070"
         inkscape:connector-curvature="0" />
      <path
         style="fill:#1b191e"
         d="m 105.56865,321.77787 c -8.644095,-1.86166 -18.297125,-5.31066 -30.760995,-10.99081 -13.902876,-6.33595 -16.148859,-6.63121 -19.564484,-2.57197 -1.471602,1.7489 -2.957903,4.94499 -3.302891,7.10243 -0.470657,2.94333 -1.094646,3.92261 -2.499443,3.92261 -1.799147,0 -1.872192,-1.59964 -1.872192,-41 0,-39.48803 0.06946,-41 1.883503,-41 1.587753,0 1.99621,1.05989 2.601288,6.75 0.394782,3.7125 1.757964,10.85998 3.029292,15.88329 6.48772,25.63448 19.466507,43.5206 37.985917,52.34856 10.232105,4.87751 16.912735,6.44263 27.500005,6.44263 16.50621,0 28.61108,-4.84242 39.57661,-15.83221 19.5015,-19.54463 20.79643,-48.34965 2.97473,-66.17135 -9.24211,-9.24211 -18.68379,-12.90024 -50.21176,-19.45427 -10.75106,-2.23492 -23.105355,-5.362 -27.453995,-6.94906 -27.834231,-10.15824 -39.051367,-28.67045 -37.578411,-62.01759 0.648628,-14.68467 2.280145,-21.60125 7.666269,-32.5 8.949474,-18.10915 22.864352,-27.67395 44.436382,-30.54465 16.619845,-2.21169 32.020155,1.62433 50.600985,12.60408 12.17104,7.19208 14.01761,7.56599 17.94912,3.63448 2.25353,-2.25354 3.04006,-3.96549 3.04006,-6.61699 0,-3.14871 0.29929,-3.57692 2.5,-3.57692 l 2.5,0 0,33.5 0,33.5 -2.29645,0 c -2.06156,0 -2.41884,-0.71378 -3.49315,-6.97869 -5.58172,-32.55005 -22.81336,-54.22396 -48.19789,-60.6232 -8.73245,-2.20137 -25.086785,-1.46694 -33.512505,1.50496 -18.27379,6.4455 -28.573871,24.07132 -27.225589,46.58929 0.864925,14.44532 4.841424,22.60042 14.895219,30.54749 6.07336,4.80071 10.37932,6.10981 32.863325,9.99114 35.69826,6.16245 53.60375,12.77088 65.111,24.03073 11.45453,11.20825 16.62333,27.84229 15.5176,49.93828 -1.69574,33.88699 -17.86674,57.84388 -44.94704,66.58778 -10.16169,3.28108 -29.19471,4.21559 -39.71451,1.94996 z m 429.03414,-2.99659 c -1.18967,-1.43347 -40.19477,-57.46817 -88.85012,-127.64203 l -24.68403,-35.60088 -0.25637,74.36775 c -0.28219,81.85741 -0.43707,79.63126 5.76327,82.83758 1.74044,0.90002 5.93256,1.9424 9.31581,2.31641 4.73089,0.52299 6.22902,1.08413 6.48765,2.43002 0.31243,1.62582 -1.301,1.75 -22.73704,1.75 -21.8309,0 -23.07332,-0.10019 -23.07332,-1.86071 0,-1.49335 1.01212,-1.98058 5.12649,-2.46786 5.79597,-0.68645 9.04232,-2.47349 11.60959,-6.39081 1.6479,-2.51447 1.76393,-7.92401 1.76393,-82.23607 l 0,-79.54455 -9.25,-0.28753 c -7.319,-0.2275 -9.25,-0.59282 -9.25,-1.75 0,-1.24249 3.57237,-1.46114 23.75,-1.45362 l 23.75,0.009 42.99999,62.16756 c 23.65,34.19216 43.78143,63.10068 44.73651,64.24115 1.65207,1.97275 1.72501,-0.7313 1.5,-55.60394 -0.23271,-56.75082 -0.27009,-57.72289 -2.32644,-60.5 -2.80591,-3.78939 -6.45012,-5.42508 -13.51367,-6.06558 -4.89153,-0.4437 -5.8964,-0.85199 -5.8964,-2.39593 0,-1.75967 1.22637,-1.86111 22.5,-1.86111 21.27189,0 22.5,0.10156 22.5,1.86071 0,1.4984 -1.01949,1.98145 -5.23582,2.48081 -5.66039,0.67039 -9.54527,2.95241 -11.49944,6.75488 -0.9503,1.84913 -1.23866,21.26195 -1.25,84.1536 -0.0124,68.76336 -0.23358,81.75 -1.3923,81.75 -0.75765,0 -1.92238,-0.65648 -2.58829,-1.45885 z m -309.03415,-1.00222 c 0,-1.14809 1.87435,-1.52296 8.75,-1.75 l 8.75,-0.28893 0.30865,-68 c 0.16976,-37.4 0.009,-75.3125 -0.35645,-84.25 l -0.66511,-16.25 -8.39354,0 c -7.72687,0 -8.39355,-0.15885 -8.39355,-2 0,-1.97829 0.66668,-2 61.41024,-2 l 61.41023,0 0.65375,8.75 c 0.35956,4.8125 1.07495,13.18518 1.58977,18.60595 1.3761,14.48992 1.2976,15.64405 -1.06399,15.64405 -1.5867,0 -2.00304,-0.67159 -2.01477,-3.25 -0.0214,-4.69388 -2.65776,-15.1878 -4.93915,-19.65969 -2.77424,-5.43797 -10.02382,-11.45372 -16.24586,-13.48094 -7.75058,-2.52523 -26.13453,-3.80852 -43.55021,-3.04002 l -15.25,0.67294 0,40.53152 0,40.53152 11.75,-0.6107 c 24.32602,-1.26434 31.04045,-6.454 32.92048,-25.44463 0.42452,-4.2882 1.04417,-6.25 1.97412,-6.25 1.11315,0 1.3554,5.89809 1.3554,33 0,27.11394 -0.24194,33 -1.3564,33 -0.95188,0 -1.55217,-2.10637 -2.01282,-7.0628 -1.68734,-18.15515 -8.29889,-22.97197 -31.95276,-23.27908 l -12.17803,-0.15812 0,42 0,42 24.5,-0.16487 c 17.64087,-0.11871 26.5324,-0.59414 31.75948,-1.69818 21.75619,-4.59522 31.32554,-15.45879 32.93286,-37.38695 0.43726,-5.96538 0.97898,-8.25 1.95619,-8.25 1.09996,0 1.35147,4.74558 1.35147,25.5 l 0,25.5 -67.5,0 c -58.53393,0 -67.5,-0.19407 -67.5,-1.46107 z m 346,0.1089 c 0,-0.89097 2.28105,-1.73016 6.68762,-2.46035 4.7364,-0.78485 7.39147,-1.81203 9.10001,-3.52057 2.19323,-2.19323 16.91638,-48.39649 51.75584,-162.41691 1.40894,-4.61107 3.07431,-8.25 3.77567,-8.25 0.76739,0 10.13513,26.12346 24.11548,67.25 12.57334,36.9875 25.99568,76.3625 29.82741,87.5 l 6.96678,20.25 7.88559,0 c 6.34276,0 7.8856,0.29348 7.8856,1.5 0,1.30159 -4.16667,1.5 -31.5,1.5 -27.33333,0 -31.5,-0.19841 -31.5,-1.5 0,-1.2381 1.83333,-1.5 10.5,-1.5 5.775,0 10.5,-0.38636 10.5,-0.85858 0,-0.87679 -15.14729,-45.40266 -17.1427,-50.39142 l -1.09994,-2.75 -25.87868,0 c -14.23327,0 -25.87868,0.21449 -25.87868,0.47664 0,0.26215 -2.925,10.46618 -6.5,22.67561 -3.575,12.20943 -6.5,22.9502 -6.5,23.86837 0,3.37943 3.62167,5.18965 11.69696,5.8465 6.31179,0.5134 7.84381,0.96325 8.11517,2.38288 0.31024,1.62292 -1.23202,1.75 -21.23881,1.75 -17.46139,0 -21.57332,-0.25773 -21.57332,-1.35217 z m 86.02178,-60.39783 c 0.0628,-2.16177 -24.54796,-73.11796 -25.14296,-72.49065 -0.67224,0.70878 -22.87882,71.12895 -22.87882,72.55196 0,0.94066 47.99446,0.87939 48.02178,-0.0613 z m 108.97822,60.25 c 0,-1.22222 1.66667,-1.5 9,-1.5 l 9,0 0,-85 0,-85 -5.75,0.0237 c -10.08662,0.0415 -28.87346,1.78322 -33.19226,3.07717 -5.98949,1.79449 -12.51463,7.90788 -14.57186,13.65235 -1.12309,3.13603 -1.87756,9.24303 -2.22336,17.9968 -0.4067,10.29541 -0.82881,13.25 -1.89297,13.25 -1.12359,-2e-5 -1.36955,-4.57952 -1.36955,-25.50002 l 0,-25.5 72,0 72,0 0,25.5 c 0,20.81664 -0.24945,25.5 -1.35819,25.5 -1.04828,0 -1.48347,-3.02331 -1.90729,-13.25 -0.61858,-14.9261 -2.13378,-20.50324 -6.90879,-25.4298 -5.58266,-5.75985 -11.22155,-7.38204 -29.8205,-8.57876 -9.18256,-0.59083 -17.44024,-0.78849 -18.3504,-0.43923 -1.51428,0.58108 -1.65483,5.72009 -1.65483,60.50448 0,32.9282 0.29698,70.74232 0.65995,84.03138 l 0.65994,24.16193 4.20049,0 c 7.44671,0 13.47962,1.17973 13.47962,2.63592 0,1.12277 -5.484,1.36408 -31,1.36408 -26.88889,0 -31,-0.19892 -31,-1.5 z m -495,-192.98301 c 0,-1.05871 36.32666,-40.19883 39.69284,-42.76699 4.46459,-3.40619 10.32092,-3.73625 13.30716,-0.75 2.82673,2.82672 2.98958,8.5601 0.35724,12.57754 -0.80142,1.22312 -11.49167,8.79354 -23.75612,16.82316 -18.42294,12.06163 -22.93361,14.5993 -25.95005,14.5993 -2.00808,0 -3.65107,-0.21735 -3.65107,-0.48301 z"
         id="path3068"
         inkscape:connector-curvature="0" />
    </g>
  </g>
</svg>
