<?xml version="1.0" encoding="UTF-8" standalone="no"?>
<svg
   xmlns:dc="http://purl.org/dc/elements/1.1/"
   xmlns:cc="http://creativecommons.org/ns#"
   xmlns:rdf="http://www.w3.org/1999/02/22-rdf-syntax-ns#"
   xmlns:svg="http://www.w3.org/2000/svg"
   xmlns="http://www.w3.org/2000/svg"
   width="170.5697mm"
   height="170.5697mm"
   viewBox="0 0 604.38083 604.38083"
   id="svg2"
   version="1.1">
   <defs
      id="defs4" />
   <metadata
      id="metadata7">
      <rdf:RDF>
         <cc:Work
            rdf:about="">
            <dc:format>image/svg+xml</dc:format>
            <dc:type
               rdf:resource="http://purl.org/dc/dcmitype/StillImage" />
            <dc:title></dc:title>
         </cc:Work>
      </rdf:RDF>
   </metadata>
   <g
      id="layer1"
      transform="translate(157.27344,-228.79102)">
      <path
         id="path4151"
         transform="translate(-157.27344,228.79102)"
         d="M 302.29688 0 A 302.29669 302.19055 0 0 0 0 302.18945 A 302.29669 302.19055 0 0 0 302.29688 604.38086 A 302.29669 302.19055 0 0 0 601.32031 344.27344 L 522.53516 344.27344 A 224.33601 224.25725 0 0 1 302.29688 526.44727 A 224.33601 224.25725 0 0 1 77.960938 302.18945 A 224.33601 224.25725 0 0 1 302.29688 77.933594 A 224.33601 224.25725 0 0 1 519.83594 248.35352 L 599.50195 248.35352 A 302.29669 302.19055 0 0 0 302.29688 0 z "
         clip-path="none"
         style="opacity:1;fill:#284199;fill-opacity:1;stroke-width:30.89999962;stroke-linecap:round;stroke-linejoin:miter;stroke-miterlimit:0;stroke-dasharray:none" />
      <path
         id="path4151-9"
         transform="translate(-157.27344,228.79102)"
         d="M 301.88281 76.402344 A 225.86759 225.78829 0 0 0 76.015625 302.18945 A 225.86759 225.78829 0 0 0 301.88281 527.97852 A 225.86759 225.78829 0 0 0 523.38086 344.27344 L 463.84766 344.27344 A 167.61756 167.55872 0 0 1 301.88281 469.74805 A 167.61756 167.55872 0 0 1 134.26562 302.18945 A 167.61756 167.55872 0 0 1 301.88281 134.63281 A 167.61756 167.55872 0 0 1 460.2207 248.35352 L 520.77344 248.35352 A 225.86759 225.78829 0 0 0 301.88281 76.402344 z "
         clip-path="none"
         style="opacity:1;fill:#ffffff;fill-opacity:1;stroke-width:30.89999962;stroke-linecap:round;stroke-linejoin:miter;stroke-miterlimit:0;stroke-dasharray:none" />
      <path
         id="path4151-6-6"
         transform="translate(-157.27344,228.79102)"
         d="M 302.29688 132.91406 A 169.33601 169.27657 0 0 0 132.96094 302.18945 A 169.33601 169.27657 0 0 0 302.29688 471.4668 A 169.33601 169.27657 0 0 0 466.17969 344.27344 L 383.42383 344.27344 A 91.478874 91.446754 0 0 1 302.29688 393.63672 A 91.478874 91.446754 0 0 1 210.81836 302.18945 A 91.478874 91.446754 0 0 1 302.29688 210.74414 A 91.478874 91.446754 0 0 1 376.10352 248.35352 L 462.67383 248.35352 A 169.33601 169.27657 0 0 0 302.29688 132.91406 z "
         clip-path="none"
         style="opacity:1;fill:#ec2427;fill-opacity:1;stroke-width:30.89999962;stroke-linecap:round;stroke-linejoin:miter;stroke-miterlimit:0;stroke-dasharray:none" />
   </g>
</svg>